<svg width="83" height="83" viewBox="0 0 83 83" fill="none" xmlns="http://www.w3.org/2000/svg">
<circle cx="41.5" cy="41.5" r="41.5" fill="#C2D57C"/>
<path fill-rule="evenodd" clip-rule="evenodd" d="M80.4461 41.4999C80.4461 50.0362 77.6997 57.9311 73.0424 64.3492C64.8316 56.541 53.7256 51.7488 41.5003 51.7488C29.2748 51.7488 18.1686 56.5411 9.95772 64.3497C5.30019 57.9315 2.5537 50.0364 2.5537 41.4999C2.5537 19.9905 19.9905 2.5537 41.4999 2.5537C63.0093 2.5537 80.4461 19.9905 80.4461 41.4999ZM41.5 14.8523C33.5755 14.8523 27.1514 21.2764 27.1514 29.2009V33.3005C27.1514 41.225 33.5755 47.6491 41.5 47.6491C49.4245 47.6491 55.8486 41.225 55.8486 33.3005V29.2009C55.8486 21.2764 49.4245 14.8523 41.5 14.8523Z" fill="white"/>
</svg>
