<svg width="32" height="32" fill="none" xmlns="http://www.w3.org/2000/svg"><path d="M4 1.92C4 .86 4.86 0 5.92 0H20l8 6.72v23.36c0 1.06-.86 1.92-1.92 1.92H5.92A1.92 1.92 0 0 1 4 30.08V1.92z" fill="#F5F5F5"/><path d="M20 0v4.8c0 1.06.86 1.92 1.92 1.92H28" fill="#E0E0E0"/><path d="M18 0h-2.5v1.5H18V0zM15.5 1.5H13V3h2.5V1.5zM18 3h-2.5v1.5H18V3zM15.5 4.5H13V6h2.5V4.5zM18 6h-2.5v1.5H18V6zM15.5 7.5H13V9h2.5V7.5zM18 9h-2.5v1.5H18V9zM15.5 10.5H13V12h2.5v-1.5zM18 12h-2.5v1.5H18V12zM15.5 13.5H13V15h2.5v-1.5zM18 15h-2.5v1.5H18V15zM15.5 16.5H13V18h2.5v-1.5zM13 19v4c0 1.1.9 2 2 2h1c1.1 0 2-.9 2-2v-4h-5zm3.5 3c0 .55-.45 1-1 1s-1-.45-1-1v-1h2v1z" fill="#787878"/></svg>