<svg width="32" height="32" fill="none" xmlns="http://www.w3.org/2000/svg"><path d="M4 1.92C4 .86 4.86 0 5.92 0H20l8 6.72v23.36c0 1.06-.86 1.92-1.92 1.92H5.92A1.92 1.92 0 0 1 4 30.08V1.92z" fill="#42A5F5"/><path d="M20 0v4.8c0 1.06.86 1.92 1.92 1.92H28" fill="#1E88E5"/><path d="M9.39 22.59H7.51v-6.932h1.76c1.781 0 3.482.57 3.482 3.432 0 2.819-1.63 3.5-3.361 3.5zm.12-5.732h-.34v4.532h.34c.91 0 1.52-.49 1.52-2.301.001-1.85-.649-2.23-1.52-2.23zM16.001 22.76c-1.82 0-2.78-1.39-2.78-3.64 0-2.201.96-3.642 2.78-3.642 1.82 0 2.78 1.391 2.78 3.641 0 2.2-.96 3.64-2.78 3.64zm0-6.072c-.77 0-1.08.73-1.08 2.431 0 1.7.32 2.43 1.08 2.43.79 0 1.08-.75 1.08-2.43 0-1.7-.31-2.431-1.08-2.431zM24.001 17.209c-.38-.31-.78-.5-1.31-.5-.95 0-1.63.71-1.63 2.4 0 1.66.64 2.37 1.59 2.37.68 0 1.111-.28 1.5-.58l.75.96c-.51.49-1.26.9-2.36.9-1.91 0-3.21-1.27-3.21-3.65 0-2.322 1.39-3.632 3.24-3.632 1 0 1.66.301 2.24.771l-.81.96z" fill="#fff"/></svg>