<svg xmlns="http://www.w3.org/2000/svg" viewBox="0 0 24 32"><path fill="#26A69A" d="M0 1.9C0 .9.9 0 1.9 0H16l8 6.7v23.4c0 1.1-.9 1.9-1.9 1.9H1.9c-1 0-1.9-.9-1.9-1.9V1.9z"/><path fill="#00897B" d="M16 0v4.8c0 1.1.9 1.9 1.9 1.9H24"/><path fill="#FFF" d="M3.2 15.7H5l1 2.2 1.1-2.2h1.8L7 18.8l2 3.8H7.2L6 20l-1.2 2.6H3l2-3.7-1.8-3.2zm6.7 6.9v-6.9h1.7v5.6h3l-.2 1.3H9.9zm8 .2c-1.3 0-2.2-.4-2.8-1l.8-.9c.5.5 1.1.7 1.9.7.7 0 1.1-.3 1.1-.8s-.3-.7-1.3-1c-1.6-.5-2.2-1.1-2.2-2.2 0-1.3 1.2-2 2.6-2 1.1 0 1.9.3 2.5.9l-.8.9c-.5-.4-1-.6-1.6-.6-.6 0-1 .2-1 .7 0 .4.3.6 1.4 1 1.3.4 2.1 1 2.1 2.2.1 1.2-1 2.1-2.7 2.1z"/></svg>