<svg width="32" height="32" fill="none" xmlns="http://www.w3.org/2000/svg"><path d="M4 1.92C4 .86 4.86 0 5.92 0H20l8 6.72v23.36c0 1.06-.86 1.92-1.92 1.92H5.92A1.92 1.92 0 0 1 4 30.08V1.92z" fill="#26A69A"/><path d="M20 0v4.8c0 1.06.86 1.92 1.92 1.92H28" fill="#00897B"/><path d="M7.16 15.659h1.81l.99 2.16H10l1.05-2.16h1.761l-1.86 3.181 2.03 3.75h-1.81l-1.19-2.57h-.04l-1.16 2.57H7.01l1.96-3.68-1.81-3.251zM13.92 22.59V15.66h1.661v5.622h3l-.17 1.31h-4.49zM21.881 22.76c-1.26 0-2.2-.44-2.77-1l.84-.93c.51.45 1.13.7 1.87.7.68 0 1.14-.31 1.14-.84 0-.5-.29-.72-1.25-1.021-1.59-.5-2.2-1.13-2.2-2.17 0-1.281 1.18-2.021 2.62-2.021 1.051 0 1.87.33 2.47.9l-.78.9c-.47-.389-1.02-.58-1.56-.58-.62 0-1.031.231-1.031.67 0 .44.31.61 1.37.95 1.32.43 2.09.97 2.09 2.24.002 1.302-1.058 2.202-2.809 2.202z" fill="#fff"/></svg>