<svg xmlns="http://www.w3.org/2000/svg" viewBox="0 0 24 32"><path fill="#B79EFF" d="M0 1.9C0 .9.9 0 1.9 0H16l8 6.7v23.4c0 1.1-.9 1.9-1.9 1.9H1.9c-1 0-1.9-.9-1.9-1.9V1.9z"/><path fill="#9571FF" d="M16 0v4.8c0 1.1.9 1.9 1.9 1.9H24"/><path fill="#FFFFFF" d="M14 0h-2.5v1.5H14V0zm-2.5 1.5H9V3h2.5V1.5zM14 3h-2.5v1.5H14V3zm-2.5 1.5H9V6h2.5V4.5zM14 6h-2.5v1.5H14V6zm-2.5 1.5H9V9h2.5V7.5zM14 9h-2.5v1.5H14V9zm-2.5 1.5H9V12h2.5v-1.5zM14 12h-2.5v1.5H14V12zm-2.5 1.5H9V15h2.5v-1.5zM14 15h-2.5v1.5H14V15zm-2.5 1.5H9V18h2.5v-1.5zM9 19v4c0 1.1.9 2 2 2h1c1.1 0 2-.9 2-2v-4H9zm3.5 3c0 .5-.5 1-1 1s-1-.5-1-1v-1h2v1z"/></svg>