<svg xmlns="http://www.w3.org/2000/svg" viewBox="0 0 24 32"><path fill="#42A5F5" d="M0 1.9C0 .9.9 0 1.9 0H16l8 6.7v23.4c0 1.1-.9 1.9-1.9 1.9H1.9c-1 0-1.9-.9-1.9-1.9V1.9z"/><path fill="#1E88E5" d="M16 0v4.8c0 1.1.9 1.9 1.9 1.9H24"/><path fill="#FFF" d="M5.4 22.6H3.5v-6.9h1.8c1.8 0 3.5.6 3.5 3.4s-1.7 3.5-3.4 3.5zm.1-5.7h-.3v4.5h.3c.9 0 1.5-.5 1.5-2.3 0-1.9-.6-2.2-1.5-2.2zm6.5 5.9c-1.8 0-2.8-1.4-2.8-3.6s1-3.6 2.8-3.6 2.8 1.4 2.8 3.6c0 2.1-1 3.6-2.8 3.6zm0-6.1c-.8 0-1.1.7-1.1 2.4s.3 2.4 1.1 2.4 1.1-.8 1.1-2.4c0-1.7-.3-2.4-1.1-2.4zm8 .5c-.4-.3-.8-.5-1.3-.5-1 0-1.6.7-1.6 2.4s.6 2.4 1.6 2.4c.7 0 1.1-.3 1.5-.6l.8 1c-.5.5-1.3.9-2.4.9-1.9 0-3.2-1.3-3.2-3.6s1.4-3.6 3.2-3.6c1 0 1.7.3 2.2.8l-.8.8z"/></svg>