<svg width="32" height="32" fill="none" xmlns="http://www.w3.org/2000/svg"><path d="M4 1.92C4 .86 4.86 0 5.92 0H20l8 6.72v23.36c0 1.06-.86 1.92-1.92 1.92H5.92A1.92 1.92 0 0 1 4 30.08V1.92z" fill="#EF5350"/><path d="M20 0v4.8c0 1.06.86 1.92 1.92 1.92H28" fill="#D32F2F"/><path d="M10.021 20.29h-.75v2.3h-1.66V15.66H9.8c1.89 0 2.97.74 2.97 2.26 0 1.631-1.11 2.37-2.75 2.37zm-.2-3.451h-.55v2.25h.61c.75 0 1.18-.36 1.18-1.17 0-.73-.41-1.08-1.24-1.08zM15.391 22.59h-1.88V15.66h1.76c1.781 0 3.48.57 3.48 3.431 0 2.82-1.63 3.5-3.36 3.5zm.12-5.731h-.34v4.531h.34c.91 0 1.52-.49 1.52-2.3 0-1.85-.65-2.231-1.52-2.231zM21.641 16.839v1.82h2.42v1.19h-2.42v2.741h-1.67V15.66h4.57l-.17 1.18h-2.73z" fill="#fff"/></svg>