<svg width="28" height="30" viewBox="0 0 28 30" fill="none" xmlns="http://www.w3.org/2000/svg">
<g clip-path="url(#clip0)">
<path d="M19.9867 26.4723C20.1781 27.1125 19.8554 27.7946 19.2508 28.0298C17.2588 28.8048 15.3829 29.0769 12.9534 29.0769C6.27553 29.0769 0.402222 24.1065 0.402222 15.917C0.402165 7.39559 6.35605 0 15.4477 0C22.5284 0 27.5978 5.05525 27.5978 12.0745C27.5978 18.1738 24.2987 22.0161 19.954 22.0161C18.0637 22.0161 16.6944 21.0142 16.4947 18.8H16.4143C15.1658 20.9313 13.3561 22.0161 11.2239 22.0161C8.60795 22.0161 6.71766 20.0111 6.71766 16.5853C6.71766 11.4898 10.339 6.85114 16.1324 6.85114C17.0971 6.85114 18.1347 6.98773 19.0417 7.20695C20.1209 7.4677 20.8178 8.5498 20.6405 9.68558L19.7132 15.6243C19.3098 18.0908 19.5916 19.2183 20.7184 19.2591C22.4484 19.3019 24.6199 17.0035 24.6199 12.1989C24.6199 6.76811 21.241 2.54775 15.0055 2.54775C8.85029 2.54775 3.45866 7.56211 3.45866 15.5413C3.45866 22.5179 7.76465 26.4877 13.7578 26.4877C15.3526 26.4877 17.0196 26.2093 18.439 25.6742C18.7456 25.5587 19.0843 25.5786 19.3765 25.7291C19.6686 25.8796 19.8895 26.1476 19.9862 26.4711L19.9867 26.4723ZM16.7354 10.3195C16.4141 10.236 16.0113 10.1524 15.4887 10.1524C12.8321 10.1524 10.7405 12.8673 10.7405 16.0851C10.7405 17.6724 11.4252 18.6737 12.7517 18.6737C14.2403 18.6737 15.8099 16.7114 16.1716 14.2874L16.7354 10.3195Z" fill="#A1BF35"/>
</g>
<defs>
<clipPath id="clip0">
<rect width="28" height="29.0769" fill="white"/>
</clipPath>
</defs>
</svg>
