<svg width="22" height="22" viewBox="0 0 22 22" fill="none" xmlns="http://www.w3.org/2000/svg">
<path fill-rule="evenodd" clip-rule="evenodd" d="M11 2.0999C6.08469 2.0999 2.10002 6.08457 2.10002 10.9999C2.10002 13.2188 2.91204 15.2481 4.25512 16.8067C5.77145 14.8224 8.48254 13.8975 11.0677 13.8999C13.6399 13.9023 16.3108 14.8242 17.7524 16.798C19.091 15.2405 19.9 13.2147 19.9 10.9999C19.9 6.08457 15.9154 2.0999 11 2.0999ZM11 19.8999C8.74082 19.8999 6.67823 19.0581 5.10877 17.6711C6.29541 15.9981 8.6355 15.0976 11.0666 15.0999C13.5053 15.1022 15.7961 16.0112 16.8957 17.6672C15.3257 19.0566 13.2613 19.8999 11 19.8999ZM0.900024 10.9999C0.900024 5.42183 5.42195 0.899902 11 0.899902C16.5781 0.899902 21.1 5.42183 21.1 10.9999C21.1 16.578 16.5781 21.0999 11 21.0999C5.42195 21.0999 0.900024 16.578 0.900024 10.9999ZM13.3 9.9999C13.3 11.2702 12.2703 12.2999 11 12.2999C9.72977 12.2999 8.70002 11.2702 8.70002 9.9999C8.70002 8.72965 9.72977 7.6999 11 7.6999C12.2703 7.6999 13.3 8.72965 13.3 9.9999ZM14.5 9.9999C14.5 11.9329 12.933 13.4999 11 13.4999C9.06703 13.4999 7.50002 11.9329 7.50002 9.9999C7.50002 8.0669 9.06703 6.4999 11 6.4999C12.933 6.4999 14.5 8.0669 14.5 9.9999Z" fill="#8A8A8A"/>
</svg>
