<svg width="25" height="25" viewBox="0 0 25 25" fill="none" xmlns="http://www.w3.org/2000/svg">
<path fill-rule="evenodd" clip-rule="evenodd" d="M12.4999 1.2C6.25913 1.2 1.2 6.25913 1.2 12.4999C1.2 15.385 2.28123 18.0175 4.06058 20.0144C5.89771 17.4765 9.3095 16.28 12.585 16.2831C15.8476 16.2861 19.2079 17.4808 20.9463 20.0065C22.7214 18.0105 23.7998 15.3811 23.7998 12.4999C23.7998 6.25913 18.7406 1.2 12.4999 1.2ZM12.4999 23.7998C9.58297 23.7998 6.92419 22.6945 4.91948 20.88C6.41852 18.6576 9.45686 17.4802 12.5839 17.4831C15.7195 17.486 18.6966 18.6741 20.0832 20.8774C18.0781 22.6935 15.4182 23.7998 12.4999 23.7998ZM0 12.4999C0 5.59639 5.59639 0 12.4999 0C19.4034 0 24.9998 5.59639 24.9998 12.4999C24.9998 19.4034 19.4034 24.9998 12.4999 24.9998C5.59639 24.9998 0 19.4034 0 12.4999ZM15.6852 11.2461C15.6852 13.0047 14.2596 14.4303 12.501 14.4303C10.7425 14.4303 9.31687 13.0047 9.31687 11.2461C9.31687 9.48758 10.7425 8.06198 12.501 8.06198C14.2596 8.06198 15.6852 9.48758 15.6852 11.2461ZM16.8852 11.2461C16.8852 13.6675 14.9223 15.6303 12.501 15.6303C10.0797 15.6303 8.11687 13.6675 8.11687 11.2461C8.11687 8.82484 10.0797 6.86198 12.501 6.86198C14.9223 6.86198 16.8852 8.82484 16.8852 11.2461Z" fill="#A1BF35"/>
</svg>
