<svg width="28" height="28" viewBox="0 0 28 28" fill="none" xmlns="http://www.w3.org/2000/svg">
<g clip-path="url(#clip0)">
<path d="M16.2837 7.79349C15.658 7.17335 15.3135 6.34813 15.3135 5.46993C15.3135 4.59151 15.658 3.7665 16.2837 3.14636L19.1373 0.318002C19.5665 -0.107106 20.2588 -0.104115 20.6841 0.325052C21.1092 0.754005 21.1062 1.44657 20.6771 1.87168L18.2055 4.32149H21.9827C25.2971 4.32149 27.9956 7.01783 27.9983 10.332L28.0009 13.3438C28.0013 13.9479 27.5121 14.438 26.908 14.4384C26.9078 14.4384 26.9074 14.4384 26.9071 14.4384C26.3035 14.4384 25.8138 13.9494 25.8134 13.3457L25.8108 10.3339C25.8091 8.2248 24.0918 6.50898 21.9827 6.50898H18.095L20.6771 9.06796C21.1062 9.49329 21.1092 10.1856 20.6841 10.6148C20.4703 10.8306 20.1887 10.9387 19.9072 10.9387C19.6288 10.9387 19.3505 10.8331 19.1373 10.6216L16.2837 7.79349ZM26.7279 19.7164C25.2003 18.2435 23.9205 17.3932 22.7003 17.0406C21.0189 16.5548 19.4616 16.9965 18.0715 18.3541C18.0694 18.356 18.0675 18.3582 18.0653 18.3603L16.5851 19.8292C15.6657 19.3129 13.8786 18.1762 11.9239 16.2215L11.7799 16.0778C9.83811 14.1359 8.69437 12.3385 8.17399 11.4155L9.64179 9.93676C9.64371 9.93463 9.64584 9.93249 9.64798 9.93036C11.0053 8.54053 11.4471 6.98323 10.9613 5.30159C10.6086 4.08138 9.75842 2.80157 8.2855 1.27417C7.53312 0.494027 6.52248 0.0428571 5.43941 0.00376424C4.35592 -0.0355422 3.3158 0.341928 2.50916 1.06589L2.47776 1.09409C2.46323 1.10734 2.44913 1.12079 2.43525 1.13447C0.829664 2.74005 -0.0120072 4.98778 0.00123731 7.63477C0.0236676 12.1313 2.49506 17.2734 6.61177 21.3901C7.38807 22.1664 8.27055 22.9348 9.23398 23.6735C9.71356 24.0412 10.3999 23.9504 10.7676 23.471C11.135 22.9916 11.0444 22.3051 10.5651 21.9376C9.67725 21.257 8.86762 20.5523 8.15861 19.8435C4.44009 16.125 2.20838 11.5569 2.18873 7.62388C2.17847 5.5855 2.79178 3.88378 3.96222 2.70117L3.97055 2.69369C4.76565 1.97998 5.9692 2.02335 6.71068 2.7926C9.54267 5.72926 9.33737 7.11567 8.08598 8.3989L6.0587 10.4413C5.74083 10.7616 5.65218 11.2446 5.8359 11.6568C5.88738 11.7724 7.13258 14.5239 10.2337 17.625L10.3775 17.7688C13.4782 20.8695 16.2297 22.1145 16.3452 22.166C16.7575 22.3495 17.2403 22.2613 17.5608 21.9432L19.6034 19.9157C20.8866 18.6645 22.2728 18.4594 25.2095 21.291C25.9785 22.0327 26.0219 23.2362 25.3086 24.0311L25.3009 24.0397C24.1279 25.2007 22.4446 25.8134 20.4282 25.8134C20.4115 25.8134 20.3949 25.8134 20.3782 25.8132C18.7664 25.8053 16.9002 25.3635 14.9813 24.5357C14.4267 24.2964 13.7828 24.5521 13.5438 25.1067C13.3045 25.6615 13.5603 26.3049 14.1148 26.5442C16.3331 27.501 18.4366 27.991 20.3673 28.0006C20.3878 28.0009 20.4083 28.0009 20.4288 28.0009C23.0491 28.0009 25.2744 27.1598 26.8676 25.5669C26.8813 25.553 26.8948 25.5387 26.908 25.5241L26.9362 25.4925C27.6602 24.6861 28.0374 23.6455 27.9983 22.5625C27.959 21.4794 27.5079 20.4688 26.7279 19.7164Z" fill="#A1BF35"/>
</g>
<defs>
<clipPath id="clip0">
<rect width="28" height="28" fill="white"/>
</clipPath>
</defs>
</svg>
