<svg width="18" height="18" viewBox="0 0 18 18" fill="none" xmlns="http://www.w3.org/2000/svg">
<mask id="path-1-inside-1" fill="white">
<path fill-rule="evenodd" clip-rule="evenodd" d="M9.67602 1.04608C9.45066 0.851175 9.1164 0.851175 8.89104 1.04608L1.1075 7.77779C0.913967 7.94517 0.847877 8.21687 0.942906 8.45444L2.62002 12.6472C2.62359 12.6569 2.6274 12.6664 2.63145 12.6758L4.30876 16.8691C4.39988 17.0969 4.6205 17.2462 4.86585 17.2462H7.81097H10.7561H13.7012C13.9466 17.2462 14.1672 17.0969 14.2583 16.8691L17.6242 8.45444C17.7192 8.21687 17.6531 7.94517 17.4596 7.77779L9.67602 1.04608ZM4.06912 13.0389L5.27207 16.0462H7.12566L6.72467 13.0389H4.06912ZM7.93529 13.0389L8.33628 16.0462H10.2308L10.6318 13.0389H7.93529ZM10.7918 11.8389H7.77529L7.37433 8.83161H11.1927L10.7918 11.8389ZM11.8424 13.0389L11.4414 16.0462H13.295L14.4979 13.0389H11.8424ZM14.9779 11.839C14.973 11.8389 14.9682 11.8389 14.9633 11.8389H12.0024L12.4034 8.83161H16.1808L14.9779 11.839ZM6.56467 11.8389H3.58912L2.38621 8.83161H6.16371L6.56467 11.8389ZM11.878 7.63161H15.4561L9.28353 2.29317L3.11096 7.63161H6.68902H11.878Z"/>
</mask>
<path d="M8.89104 1.04608L8.10606 0.138448V0.138449L8.89104 1.04608ZM9.67602 1.04608L8.89104 1.95372L8.89104 1.95372L9.67602 1.04608ZM1.1075 7.77779L0.322519 6.87016L0.322519 6.87016L1.1075 7.77779ZM0.942906 8.45444L-0.171266 8.90011L-0.171266 8.90011L0.942906 8.45444ZM2.62002 12.6472L3.74533 12.2305L3.73995 12.216L3.73419 12.2016L2.62002 12.6472ZM2.63145 12.6758L3.74562 12.2301L3.73987 12.2158L3.73375 12.2015L2.63145 12.6758ZM4.30876 16.8691L3.19459 17.3147L3.19459 17.3147L4.30876 16.8691ZM14.2583 16.8691L15.3725 17.3147L15.3725 17.3147L14.2583 16.8691ZM17.6242 8.45444L16.51 8.00877V8.00878L17.6242 8.45444ZM17.4596 7.77779L18.2445 6.87016L18.2445 6.87016L17.4596 7.77779ZM5.27207 16.0462L4.15789 16.4919L4.45963 17.2462H5.27207V16.0462ZM4.06912 13.0389V11.8389H2.29668L2.95494 13.4845L4.06912 13.0389ZM7.12566 16.0462V17.2462H8.49628L8.31513 15.8876L7.12566 16.0462ZM6.72467 13.0389L7.91415 12.8803L7.77529 11.8389H6.72467V13.0389ZM7.93529 13.0389V11.8389H6.56467L6.74582 13.1975L7.93529 13.0389ZM8.33628 16.0462L7.1468 16.2048L7.28566 17.2462H8.33628V16.0462ZM10.2308 16.0462V17.2462H11.2814L11.4203 16.2048L10.2308 16.0462ZM10.6318 13.0389L11.8212 13.1975L12.0024 11.8389H10.6318V13.0389ZM7.77529 11.8389L6.58582 11.9975L6.72467 13.0389H7.77529V11.8389ZM10.7918 11.8389V13.0389H11.8424L11.9812 11.9975L10.7918 11.8389ZM7.37433 8.83161V7.63161H6.00371L6.18485 8.99021L7.37433 8.83161ZM11.1927 8.83161L12.3822 8.99021L12.5633 7.63161H11.1927V8.83161ZM11.8424 13.0389V11.8389H10.7918L10.6529 12.8803L11.8424 13.0389ZM11.4414 16.0462L10.2519 15.8876L10.0708 17.2462H11.4414V16.0462ZM13.295 16.0462V17.2462H14.1074L14.4092 16.4919L13.295 16.0462ZM14.4979 13.0389L15.6121 13.4845L16.2704 11.8389H14.4979V13.0389ZM14.9779 11.839L14.9495 13.0387L15.7826 13.0584L16.092 12.2847L14.9779 11.839ZM12.0024 11.8389L10.8129 11.6803L10.6318 13.0389H12.0024V11.8389ZM12.4034 8.83161V7.63161H11.3527L11.2139 8.67301L12.4034 8.83161ZM16.1808 8.83161L17.295 9.27728L17.9533 7.63161H16.1808V8.83161ZM3.58912 11.8389L2.47494 12.2845L2.77668 13.0389H3.58912V11.8389ZM6.56467 11.8389V13.0389H7.93529L7.75415 11.6803L6.56467 11.8389ZM2.38621 8.83161V7.63161H0.613773L1.27204 9.27728L2.38621 8.83161ZM6.16371 8.83161L7.35318 8.67301L7.21433 7.63161H6.16371V8.83161ZM15.4561 7.63161V8.83161H18.678L16.2411 6.72397L15.4561 7.63161ZM9.28353 2.29317L10.0685 1.38554L9.28353 0.706633L8.49855 1.38554L9.28353 2.29317ZM3.11096 7.63161L2.32598 6.72397L-0.110976 8.83161H3.11096V7.63161ZM9.67602 1.95372C9.45066 2.14863 9.1164 2.14863 8.89104 1.95372L10.461 0.138449C9.78491 -0.44628 8.78215 -0.44628 8.10606 0.138448L9.67602 1.95372ZM1.89248 8.68543L9.67602 1.95372L8.10606 0.138449L0.322519 6.87016L1.89248 8.68543ZM2.05708 8.00878C2.15211 8.24635 2.08602 8.51805 1.89248 8.68543L0.322519 6.87016C-0.258083 7.3723 -0.456354 8.18739 -0.171266 8.90011L2.05708 8.00878ZM3.73419 12.2016L2.05708 8.00878L-0.171266 8.90011L1.50585 13.0929L3.73419 12.2016ZM3.73375 12.2015C3.73784 12.211 3.7417 12.2207 3.74533 12.2305L1.49471 13.064C1.50548 13.0931 1.51697 13.1218 1.52915 13.1501L3.73375 12.2015ZM5.42293 16.4234L3.74562 12.2301L1.51728 13.1215L3.19459 17.3147L5.42293 16.4234ZM4.86585 16.0462C5.11119 16.0462 5.33181 16.1956 5.42293 16.4234L3.19459 17.3147C3.46794 17.9981 4.12981 18.4462 4.86585 18.4462V16.0462ZM7.81097 16.0462H4.86585V18.4462H7.81097V16.0462ZM10.7561 16.0462H7.81097V18.4462H10.7561V16.0462ZM13.7012 16.0462H10.7561V18.4462H13.7012V16.0462ZM13.1441 16.4234C13.2352 16.1956 13.4559 16.0462 13.7012 16.0462V18.4462C14.4372 18.4462 15.0991 17.9981 15.3725 17.3147L13.1441 16.4234ZM16.51 8.00878L13.1441 16.4234L15.3725 17.3147L18.7383 8.90011L16.51 8.00878ZM16.6746 8.68543C16.481 8.51805 16.4149 8.24635 16.51 8.00877L18.7383 8.90012C19.0234 8.18739 18.8251 7.3723 18.2445 6.87016L16.6746 8.68543ZM8.89104 1.95372L16.6746 8.68543L18.2445 6.87016L10.461 0.138449L8.89104 1.95372ZM6.38624 15.6006L5.18329 12.5932L2.95494 13.4845L4.15789 16.4919L6.38624 15.6006ZM7.12566 14.8462H5.27207V17.2462H7.12566V14.8462ZM5.5352 13.1975L5.93618 16.2048L8.31513 15.8876L7.91415 12.8803L5.5352 13.1975ZM6.72467 11.8389H4.06912V14.2389H6.72467V11.8389ZM6.74582 13.1975L7.1468 16.2048L9.52575 15.8876L9.12477 12.8803L6.74582 13.1975ZM8.33628 17.2462H10.2308V14.8462H8.33628V17.2462ZM11.4203 16.2048L11.8212 13.1975L9.44229 12.8803L9.04131 15.8876L11.4203 16.2048ZM10.6318 11.8389H7.93529V14.2389H10.6318V11.8389ZM7.77529 13.0389H10.7918V10.6389H7.77529V13.0389ZM6.18485 8.99021L6.58582 11.9975L8.96477 11.6803L8.5638 8.67301L6.18485 8.99021ZM11.1927 7.63161H7.37433V10.0316H11.1927V7.63161ZM11.9812 11.9975L12.3822 8.99021L10.0033 8.67301L9.60229 11.6803L11.9812 11.9975ZM10.6529 12.8803L10.2519 15.8876L12.6309 16.2048L13.0319 13.1975L10.6529 12.8803ZM11.4414 17.2462H13.295V14.8462H11.4414V17.2462ZM14.4092 16.4919L15.6121 13.4845L13.3838 12.5932L12.1808 15.6006L14.4092 16.4919ZM14.4979 11.8389H11.8424V14.2389H14.4979V11.8389ZM14.9633 13.0389C14.9586 13.0389 14.954 13.0388 14.9495 13.0387L15.0063 10.6394C14.9921 10.639 14.9778 10.6389 14.9633 10.6389V13.0389ZM12.0024 13.0389H14.9633V10.6389H12.0024V13.0389ZM11.2139 8.67301L10.8129 11.6803L13.1919 11.9975L13.5928 8.99021L11.2139 8.67301ZM16.1808 7.63161H12.4034V10.0316H16.1808V7.63161ZM16.092 12.2847L17.295 9.27728L15.0667 8.38594L13.8637 11.3934L16.092 12.2847ZM3.58912 13.0389H6.56467V10.6389H3.58912V13.0389ZM4.70329 11.3932L3.50038 8.38594L1.27204 9.27728L2.47494 12.2845L4.70329 11.3932ZM2.38621 10.0316H6.16371V7.63161H2.38621V10.0316ZM4.97423 8.99021L5.3752 11.9975L7.75415 11.6803L7.35318 8.67301L4.97423 8.99021ZM15.4561 6.43161H11.878V8.83161H15.4561V6.43161ZM8.49855 3.20081L14.6711 8.53925L16.2411 6.72397L10.0685 1.38554L8.49855 3.20081ZM3.89594 8.53925L10.0685 3.20081L8.49855 1.38554L2.32598 6.72397L3.89594 8.53925ZM6.68902 6.43161H3.11096V8.83161H6.68902V6.43161ZM11.878 6.43161H6.68902V8.83161H11.878V6.43161Z" fill="#8A8A8A" mask="url(#path-1-inside-1)"/>
</svg>
