<svg width="18" height="16" viewBox="0 0 18 16" fill="none" xmlns="http://www.w3.org/2000/svg">
<path d="M18.0002 15.2002V2.24063C18.0002 1.84281 17.6779 1.52051 17.2804 1.52051H13.6803C13.2826 1.52051 12.9604 1.84281 12.9604 2.24063V15.2002C12.9604 15.5982 13.2826 15.9204 13.6803 15.9204H17.2803C17.6779 15.9204 18.0002 15.5982 18.0002 15.2002Z" fill="#A1BF35"/>
<path d="M6.83975 15.9201H10.7997C11.1974 15.9201 11.5197 15.598 11.5197 15.2V0.800293C11.5197 0.402476 11.1974 0.0803223 10.7997 0.0803223H6.83975C6.44193 0.0803223 6.11963 0.402476 6.11963 0.800293V15.2C6.11963 15.598 6.44178 15.9201 6.83975 15.9201Z" fill="#A1BF35"/>
<path d="M0.71997 5.84009C0.322154 5.84009 0 6.16224 0 6.56006V15.1999C0 15.5978 0.322154 15.92 0.71997 15.92H4.31997C4.71779 15.92 5.03994 15.5978 5.03994 15.1999V6.56006C5.03994 6.16224 4.71779 5.84009 4.31997 5.84009H0.71997Z" fill="#A1BF35"/>
</svg>
