<svg width="20" height="20" viewBox="0 0 20 20" fill="none" xmlns="http://www.w3.org/2000/svg">
<path d="M12.3265 2.24593L10.8473 3.72512L4.19153 10.3812C2.97401 11.6079 2.97769 13.5881 4.1998 14.8102C5.42192 16.0323 7.40208 16.036 8.62878 14.8185L15.2866 8.16268C15.559 7.89045 15.559 7.44888 15.2866 7.1765C15.0142 6.90427 14.5728 6.90427 14.3004 7.1765L7.64261 13.8323C6.96189 14.513 5.85843 14.513 5.17771 13.8323C4.49699 13.1516 4.49699 12.0481 5.17771 11.3674L11.8335 4.70961L13.3125 3.23042C14.5385 2.00494 16.5257 2.0054 17.751 3.23119C18.9763 4.45713 18.976 6.44418 17.7501 7.66966L16.5173 8.90204L9.61481 15.8045L9.1218 16.2977C7.3442 18.0214 4.5123 17.9995 2.76134 16.2487C1.01054 14.4977 0.988647 11.6658 2.71235 9.88821L10.108 2.49274C10.284 2.31652 10.3528 2.05975 10.2883 1.81922C10.2239 1.57853 10.036 1.39051 9.79532 1.32606C9.55463 1.2616 9.29802 1.33049 9.12179 1.50657L1.72633 8.90204C-0.579188 11.2181 -0.574901 14.9633 1.73597 17.274C4.04669 19.5849 7.79189 19.5892 10.108 17.2837L17.5034 9.88821L18.7363 8.654C20.4459 6.87411 20.4174 4.05338 18.672 2.30855C16.9267 0.563571 14.1059 0.535859 12.3265 2.24593Z" fill="#A1BF35"/>
</svg>
