<svg width="16" height="17" viewBox="0 0 16 17" fill="none" xmlns="http://www.w3.org/2000/svg">
<path d="M15.473 4.88764C15.7073 4.65333 15.7073 4.27343 15.473 4.03911L11.6546 0.220738C11.4203 -0.0135765 11.0404 -0.0135765 10.8061 0.220738C10.5718 0.455053 10.5718 0.834952 10.8061 1.06927L14.2002 4.46338L10.8061 7.85749C10.5718 8.09181 10.5718 8.4717 10.8061 8.70602C11.0404 8.94033 11.4203 8.94033 11.6546 8.70602L15.473 4.88764ZM1.58533 5.06338H15.0487V3.86338H1.58533V5.06338Z" fill="#8A8A8A"/>
<path d="M1.16115 12.4609C0.926836 12.2266 0.926836 11.8467 1.16115 11.6124L4.97953 7.79398C5.21384 7.55967 5.59374 7.55967 5.82806 7.79398C6.06237 8.0283 6.06237 8.40819 5.82806 8.64251L2.43394 12.0366L5.82806 15.4307C6.06237 15.665 6.06237 16.0449 5.82806 16.2793C5.59374 16.5136 5.21384 16.5136 4.97953 16.2793L1.16115 12.4609ZM15.0488 12.6366H1.58541V11.4366H15.0488V12.6366Z" fill="#8A8A8A"/>
</svg>
