<svg width="50" height="50" viewBox="0 0 50 50" fill="none" xmlns="http://www.w3.org/2000/svg">
<circle cx="25" cy="25" r="24" stroke="#C2D57C" stroke-width="2"/>
<path d="M25 15C27.131 15 29 16.73 29 18.702C29 20.752 27.286 23.643 25 27.263C22.714 23.643 21 20.752 21 18.702C21 16.73 22.869 15 25 15ZM25 13C21.852 13 19 15.553 19 18.702C19 21.85 21.602 25.609 25 31C28.398 25.609 31 21.85 31 18.702C31 15.553 28.149 13 25 13ZM25 21C23.895 21 23 20.105 23 19C23 17.895 23.895 17 25 17C26.105 17 27 17.895 27 19C27 20.105 26.105 21 25 21ZM33 33C33 35.209 29.419 37 25 37C20.581 37 17 35.209 17 33C17 31.398 18.888 30.02 21.608 29.381L22.762 31.205C22.361 31.273 21.956 31.34 21.584 31.447C18.272 32.396 18.131 33.556 21.563 34.549C23.651 35.152 26.34 35.154 28.437 34.548C32.056 33.501 31.601 32.273 28.169 31.381C27.873 31.304 27.548 31.263 27.233 31.21L28.389 29.382C31.112 30.02 33 31.398 33 33Z" fill="#C2D57C"/>
</svg>
