<svg width="16" height="16" viewBox="0 0 16 16" fill="none" xmlns="http://www.w3.org/2000/svg">
<path d="M15.555 10.6318C15.8431 9.80722 16.0003 8.92167 16.0003 7.99996C16.0003 7.07825 15.8431 6.19271 15.555 5.36809C15.548 5.34332 15.5396 5.31916 15.5295 5.29592C14.4184 2.21146 11.463 0 8.00037 0C4.53778 0 1.58228 2.21146 0.471205 5.29592C0.461113 5.31924 0.452703 5.34332 0.445746 5.36809C0.157674 6.19271 0.000488281 7.07825 0.000488281 7.99996C0.000488281 8.92167 0.157674 9.80722 0.445746 10.6318C0.45278 10.6566 0.461113 10.6808 0.471205 10.704C1.58236 13.7885 4.53778 15.9999 8.00037 15.9999C11.463 15.9999 14.4184 13.7885 15.5295 10.704C15.5396 10.6808 15.548 10.6567 15.555 10.6318ZM8.00037 14.8532C7.69571 14.8532 7.2045 14.3018 6.79396 13.07C6.59579 12.4756 6.43715 11.7923 6.32156 11.049H9.67919C9.56359 11.7923 9.40495 12.4756 9.20687 13.07C8.79624 14.3018 8.30503 14.8532 8.00037 14.8532ZM6.18242 9.90217C6.12729 9.2907 6.09817 8.65279 6.09817 7.99996C6.09817 7.34714 6.12729 6.70922 6.18242 6.09775H9.81825C9.87338 6.70922 9.9025 7.34714 9.9025 7.99996C9.9025 8.65279 9.87338 9.2907 9.81825 9.90217H6.18242ZM1.1472 8.00004C1.1472 7.34026 1.24115 6.70203 1.416 6.09783H5.03219C4.9786 6.72191 4.95138 7.36151 4.95138 8.00004C4.95138 8.63857 4.97852 9.27817 5.03219 9.90225H1.416C1.24115 9.29797 1.1472 8.65982 1.1472 8.00004ZM8.00037 1.14678C8.30503 1.14678 8.79632 1.69816 9.20687 2.92996C9.40495 3.52437 9.56367 4.2077 9.67919 4.95097H6.32148C6.43708 4.20763 6.59572 3.52437 6.79388 2.92996C7.2045 1.69816 7.69571 1.14678 8.00037 1.14678ZM10.9685 6.09783H14.5847C14.7595 6.70203 14.8535 7.34026 14.8535 8.00004C14.8535 8.65982 14.7595 9.29804 14.5847 9.90225H10.9685C11.0221 9.27817 11.0493 8.63857 11.0493 8.00004C11.0493 7.36151 11.0221 6.72191 10.9685 6.09783ZM14.1366 4.95105H10.8369C10.6329 3.54456 10.283 2.28271 9.79211 1.38501C11.6954 1.90098 13.2722 3.21833 14.1366 4.95105ZM6.20856 1.38493C5.71766 2.28263 5.36774 3.54448 5.16377 4.95105H1.86409C2.72853 3.21833 4.30528 1.90098 6.20856 1.38493ZM1.86409 11.049H5.16377C5.36774 12.4554 5.71766 13.7173 6.20856 14.6151C4.30528 14.099 2.72853 12.7817 1.86409 11.049ZM9.79211 14.6151C10.283 13.7174 10.6329 12.4555 10.8369 11.049H14.1366C13.2722 12.7817 11.6954 14.099 9.79211 14.6151Z" fill="#A1BF35"/>
</svg>
