<svg width="24" height="14" fill="none" xmlns="http://www.w3.org/2000/svg"><path d="M13.588 3.881a2.103 2.103 0 0 0-.885 1.713c0 1.384 1.337 2.454 2.753 1.999A3.514 3.514 0 0 1 12 10.516 3.52 3.52 0 0 1 8.484 7 3.52 3.52 0 0 1 12 3.484c.575 0 1.11.152 1.588.397z" fill="#A1BF35"/><path fill-rule="evenodd" clip-rule="evenodd" d="M12 .672c6.454 0 11.607 5.62 11.82 5.859a.703.703 0 0 1 0 .938c-.213.239-5.366 5.86-11.82 5.86-6.454 0-11.607-5.621-11.82-5.86a.703.703 0 0 1 0-.938C.392 6.292 5.545.671 12 .671zM7.078 7A4.928 4.928 0 0 0 12 11.922 4.928 4.928 0 0 0 16.922 7 4.928 4.928 0 0 0 12 2.078 4.928 4.928 0 0 0 7.078 7z" fill="#A1BF35"/></svg>