<svg xmlns="http://www.w3.org/2000/svg" viewBox="0 0 24 32"><path fill="#EF5350" d="M0 1.9C0 .9.9 0 1.9 0H16l8 6.7v23.4c0 1.1-.9 1.9-1.9 1.9H1.9c-1 0-1.9-.9-1.9-1.9V1.9z"/><path fill="#D32F2F" d="M16 0v4.8c0 1.1.9 1.9 1.9 1.9H24"/><path fill="#FFF" d="M6 20.3h-.7v2.3H3.6v-6.9h2.2c1.9 0 3 .7 3 2.3 0 1.6-1.1 2.3-2.8 2.3zm-.2-3.5h-.5v2.3h.6c.7 0 1.2-.4 1.2-1.2 0-.7-.4-1.1-1.3-1.1zM11.4 22.6H9.5v-6.9h1.8c1.8 0 3.5.6 3.5 3.4s-1.7 3.5-3.4 3.5zm.1-5.7h-.3v4.5h.3c.9 0 1.5-.5 1.5-2.3 0-1.9-.6-2.2-1.5-2.2zM17.6 16.8v1.8H20v1.2h-2.4v2.7H16v-6.9h4.6l-.2 1.2h-2.8z"/></svg>