<svg width="12" height="18" fill="none" xmlns="http://www.w3.org/2000/svg"><path fill-rule="evenodd" clip-rule="evenodd" d="M10.675 3.546c.66 2.688-1.391 4.857-3.627 5.326-5.935 1.25-8.496-7.04-2.164-8.709 2.903-.764 5.274 1.287 5.79 3.383zm-2.403.416A2.343 2.343 0 0 0 5.4 2.383c-3.08.802-1.795 4.998 1.205 4.247 1.057-.264 2.04-1.358 1.667-2.668zM2.76 9.63c1.99 1.055 4.597 1.034 6.561-.049.104-.057.204-.123.305-.19.307-.203.623-.412 1.103-.39.857.045 2.589 1.412-.458 2.838-1.11.519-1.517.596-2.048.698-.27.051-.572.109-1.013.233.166.305 1.514 1.499 2.485 2.359.346.307.645.572.825.738 1.135 1.05.169 2.244-.996 2.125-.74-.077-3.06-2.363-3.482-2.833-.42.195-.985.748-1.562 1.314-.72.706-1.462 1.433-1.971 1.51-1.21.182-2.22-1.097-.99-2.202l3.271-2.99c-.174-.086-.56-.161-.937-.235-.264-.052-.523-.103-.701-.155-4.768-1.42-3.07-3.52-1.703-3.395.358.034.69.243.991.432.111.07.218.138.32.192z" fill="#fff"/></svg>