<svg width="19" height="15" fill="none" xmlns="http://www.w3.org/2000/svg"><path fill-rule="evenodd" clip-rule="evenodd" d="M0 13.298A11.261 11.261 0 0 0 5.976 15c7.17 0 11.09-5.771 11.09-10.776 0-.164-.003-.326-.01-.488A7.784 7.784 0 0 0 19 1.776a7.884 7.884 0 0 1-2.238.594A3.818 3.818 0 0 0 18.476.277 7.97 7.97 0 0 1 16 1.194 3.95 3.95 0 0 0 13.155 0c-2.153 0-3.9 1.694-3.9 3.785 0 .298.036.586.102.863A11.171 11.171 0 0 1 1.323.692a3.692 3.692 0 0 0-.528 1.904c0 1.313.688 2.473 1.734 3.152a3.943 3.943 0 0 1-1.766-.474v.048c0 1.834 1.345 3.366 3.126 3.714a3.97 3.97 0 0 1-1.026.132c-.251 0-.496-.023-.733-.068.495 1.506 1.935 2.6 3.64 2.63a7.957 7.957 0 0 1-4.84 1.62 7.82 7.82 0 0 1-.93-.052z" fill="#fff"/></svg>