<svg width="18" height="18" fill="none" xmlns="http://www.w3.org/2000/svg"><path fill-rule="evenodd" clip-rule="evenodd" d="M12.937 3.883c0 .63.513 1.143 1.146 1.143a1.144 1.144 0 1 0 0-2.287c-.633 0-1.146.512-1.146 1.144zM5.805 8.967a3.179 3.179 0 0 1 3.182-3.175 3.179 3.179 0 0 1 3.182 3.175 3.179 3.179 0 0 1-3.182 3.175 3.179 3.179 0 0 1-3.182-3.175zm3.182 4.891a4.897 4.897 0 0 1-4.902-4.89 4.897 4.897 0 0 1 4.902-4.892 4.897 4.897 0 0 1 4.902 4.891 4.897 4.897 0 0 1-4.902 4.891zm7.75-12.595a3.401 3.401 0 0 0-1.262-.821c-.387-.15-.969-.33-2.039-.378C12.278.011 11.931 0 9 0S5.722.011 4.564.064c-1.07.049-1.652.228-2.039.378-.512.2-.878.437-1.262.821-.384.384-.622.75-.821 1.262-.15.387-.33.969-.378 2.039C.011 5.722 0 6.069 0 9s.011 3.278.064 4.436c.049 1.07.228 1.652.378 2.039.2.512.437.878.821 1.262a3.4 3.4 0 0 0 1.262.821c.387.15.969.33 2.039.378C5.72 17.989 6.069 18 9 18s3.279-.011 4.436-.064c1.07-.049 1.652-.228 2.039-.378a3.4 3.4 0 0 0 1.262-.821c.384-.384.622-.75.821-1.262.15-.387.33-.969.378-2.039C17.989 12.278 18 11.931 18 9s-.011-3.278-.064-4.436c-.049-1.07-.228-1.652-.378-2.039a3.402 3.402 0 0 0-.821-1.262z" fill="#fff"/></svg>