<svg width="20" height="14" fill="none" xmlns="http://www.w3.org/2000/svg"><path fill-rule="evenodd" clip-rule="evenodd" d="M7.935 9.582V3.989l5.403 2.806-5.403 2.787zM19.8 3.02s-.196-1.372-.795-1.976c-.76-.793-1.613-.796-2.004-.842C14.202 0 10.004 0 10.004 0h-.008S5.797 0 2.999.202c-.392.046-1.243.05-2.005.842C.395 1.648.2 3.02.2 3.02S0 4.631 0 6.24v1.51c0 1.612.2 3.222.2 3.222s.195 1.372.794 1.976c.762.793 1.761.768 2.206.85C4.8 13.954 10 14 10 14s4.203-.006 7.001-.208c.39-.046 1.243-.05 2.004-.843.6-.604.795-1.976.795-1.976s.2-1.61.2-3.221v-1.51c0-1.611-.2-3.222-.2-3.222z" fill="#fff"/></svg>