<svg width="24" height="13" fill="none" xmlns="http://www.w3.org/2000/svg"><path fill-rule="evenodd" clip-rule="evenodd" d="M11.742 12.945h1.435s.433-.045.654-.27c.205-.21.198-.6.198-.6s-.028-1.827.865-2.096c.88-.266 2.012 1.766 3.21 2.547.907.591 1.596.462 1.596.462l3.205-.043s1.676-.098.881-1.349c-.065-.102-.463-.926-2.383-2.618-2.01-1.771-1.74-1.485.68-4.549 1.474-1.865 2.064-3.004 1.88-3.492-.176-.465-1.26-.342-1.26-.342l-3.61.021s-.267-.034-.465.078c-.193.11-.318.368-.318.368s-.572 1.443-1.333 2.671c-1.607 2.591-2.25 2.728-2.513 2.567-.61-.375-.458-1.505-.458-2.31 0-2.51.402-3.557-.78-3.828-.393-.09-.682-.15-1.685-.159-1.287-.013-2.377.003-2.994.29-.411.191-.728.617-.535.641.238.03.779.138 1.065.508.37.478.357 1.551.357 1.551s.213 2.955-.496 3.323c-.487.251-1.154-.262-2.587-2.613-.734-1.204-1.288-2.535-1.288-2.535S4.956.92 4.766.786C4.534.625 4.212.574 4.212.574L.781.595S.268.61.079.821c-.169.19-.014.58-.014.58s2.685 5.964 5.724 8.97c2.788 2.755 5.954 2.574 5.954 2.574z" fill="#fff"/></svg>