<svg width="28" height="30" viewBox="0 0 28 30" fill="none" xmlns="http://www.w3.org/2000/svg">
<g clip-path="url(#clip0)">
<path d="M19.3079 27.1593H1.98739V1.91749H19.3079V8.17434L21.1543 6.2568V0.958743C21.1544 0.429286 20.7409 0 20.2311 0H1.06415C0.554247 0 0.140747 0.429286 0.140747 0.958743V28.1182C0.140747 28.6476 0.554191 29.0769 1.06415 29.0769H20.2311C20.7409 29.0769 21.1544 28.6476 21.1544 28.1182V17.5679L19.3079 19.4854V27.1593Z" fill="#A1BF35"/>
<path d="M16.5858 4.21716H4.70923C4.3198 4.21716 4.00378 4.54533 4.00378 4.94986C4.00378 5.35432 4.3198 5.68249 4.70923 5.68249H16.5858C16.9753 5.68249 17.2913 5.35432 17.2913 4.94986C17.2913 4.54533 16.9753 4.21716 16.5858 4.21716Z" fill="#A1BF35"/>
<path d="M17.2913 8.85733C17.2913 8.45286 16.9753 8.12463 16.5858 8.12463H4.70923C4.3198 8.12463 4.00378 8.45286 4.00378 8.85733C4.00378 9.26185 4.3198 9.59002 4.70923 9.59002H16.5858C16.9753 9.59002 17.2913 9.26191 17.2913 8.85733Z" fill="#A1BF35"/>
<path d="M15.5932 12.0323H4.70923C4.3198 12.0323 4.00378 12.3606 4.00378 12.765C4.00378 13.1696 4.3198 13.4977 4.70923 13.4977H14.1821L15.5932 12.0323Z" fill="#A1BF35"/>
<path d="M11.6467 16.8896C11.7422 16.5576 11.8787 16.2394 12.0449 15.9399H4.70935C4.31992 15.9399 4.00391 16.2681 4.00391 16.6726C4.00391 17.077 4.31992 17.4053 4.70935 17.4053H11.4988L11.6467 16.8896Z" fill="#A1BF35"/>
<path d="M4.70923 19.8475C4.3198 19.8475 4.00378 20.1756 4.00378 20.5802C4.00378 20.9846 4.3198 21.3128 4.70923 21.3128H10.9066C10.7238 20.8521 10.6765 20.3431 10.8056 19.8475H4.70923Z" fill="#A1BF35"/>
<path d="M27.2823 5.5495C26.9126 5.16542 26.4114 4.94989 25.8892 4.94989C25.367 4.94989 24.8658 5.16542 24.4965 5.54902L14.0585 16.3888C13.7737 16.6845 13.5648 17.0484 13.4494 17.4491L12.6177 20.3446C12.5823 20.4671 12.6144 20.5997 12.7017 20.6904C12.7656 20.7568 12.851 20.7925 12.9387 20.7925C12.9704 20.7925 13.003 20.7877 13.0347 20.7777L15.8228 19.9139C16.2087 19.7941 16.5592 19.5771 16.8439 19.2814L27.2822 8.44204C27.6515 8.05849 27.8592 7.53814 27.8592 6.9958C27.8592 6.45334 27.6516 5.93298 27.2823 5.5495Z" fill="#A1BF35"/>
</g>
<defs>
<clipPath id="clip0">
<rect width="28" height="29.0769" fill="white"/>
</clipPath>
</defs>
</svg>
