<svg width="14" height="18" fill="none" xmlns="http://www.w3.org/2000/svg"><path d="M11.696 7.043V4.696a4.696 4.696 0 0 0-9.392 0v2.347c-.864 0-1.565.7-1.565 1.565v7.827C.74 17.299 1.44 18 2.304 18h9.392c.864 0 1.565-.7 1.565-1.565V8.608c0-.864-.7-1.565-1.565-1.565zM3.87 4.696a3.13 3.13 0 1 1 6.26 0v2.347H3.87V4.696zm7.826 11.739H2.304V8.609h9.392v7.826zm-5.479-3.348v1a.783.783 0 0 0 1.566 0v-1A1.56 1.56 0 0 0 7 10.174a1.56 1.56 0 1 0-.783 2.914z" fill="#A1C760"/><path d="M11.696 7.043V4.696a4.696 4.696 0 0 0-9.392 0v2.347c-.864 0-1.565.7-1.565 1.565v7.827C.74 17.299 1.44 18 2.304 18h9.392c.864 0 1.565-.7 1.565-1.565V8.608c0-.864-.7-1.565-1.565-1.565zM3.87 4.696a3.13 3.13 0 1 1 6.26 0v2.347H3.87V4.696zm7.826 11.739H2.304V8.609h9.392v7.826zm-5.479-3.348v1a.783.783 0 0 0 1.566 0v-1A1.56 1.56 0 0 0 7 10.174a1.56 1.56 0 1 0-.783 2.914z" fill="#333"/></svg>