<svg width="149" height="41" xmlns="http://www.w3.org/2000/svg" viewBox="0 0 7022.9 1774.6"><path fill="#939498" d="M6586.3 1516.2l-439.7 258.4v-504.3l439.7-258.5z"/><path fill="#8ABE5C" d="M6142.1 259l-439.7 251.5L5262.7 259 5702.4 0zM7022.9 259l-439.7 251.5L6142.5 259 6583.2 0zM6586.3 1011.8l-439.7 259-439.7-259 439.7-251.5z"/><path fill="#939498" d="M6142.1 763.4l-436.6 248.4-3-501.4L6142.1 259zM7022.9 763.4l-436.6 248.4-3-501.4L7022.9 259z"/><path fill="#333333" d="M378.7 742.9V816H87.2v181.3c21-3 61.1-5 83.2-5 64.1 0 127.2 14 174.3 45.1 51.1 33.1 86.2 86.2 86.2 165.3 0 63.1-21 111.2-56.1 146.3-55.1 54.1-146.3 75.1-238.4 75.1-61.1 0-107.2-4-136.3-8V742.9h378.6zM87.2 1351c20 4 43.1 5 73.1 5 54.1 0 109.2-17 142.3-52.1 23-24.1 37.1-57.1 37.1-99.2 0-52.1-22-87.2-55.1-110.2-35.1-24-80.1-34.1-128.2-34.1-20 0-47.1 2-69.1 4l-.1 286.6zM893.6 1101.6H631.2V1345h292.5v73.1H544V743h364.7v73.1H631.1v213.4h262.5v72.1zM1506.7 742.9v675.2h-88.2v-602h-223.4v204.4c0 146.3-6 309.6-101.2 373.7-25 16-64.1 32.1-103.2 32.1l-11-70.1c27-5 55.1-21 71.1-36.1 54.1-53.1 59.1-184.3 59.1-292.5V743l396.8-.1zM1745.1 742.9v252.5c20-3 58.1-5 80.1-5 139.3 0 260.5 61.1 260.5 211.4 0 62.1-20 108.2-52.1 143.3-55.1 58.1-149.3 79.1-240.4 79.1-60.1 0-106.2-4-135.2-8V742.9h87.1zm0 608.1c18 4 40.1 5 70.1 5 96.2 0 179.3-49.1 179.3-151.3 0-105.2-90.2-145.3-180.3-145.3-32.1 0-58.1 3-69.1 5V1351zM2249 742.9v675.2h-88.1V742.9h88.1zM2487.5 742.9v284.5c0 107.2-2 195.3-8 285.5l2 1c34.1-70.1 76.1-143.3 125.2-223.4l218.4-347.6h87.1v675.2h-82.1v-287.5c0-109.2 1-189.3 8-274.5l-3-1c-33.1 74.1-79.1 152.3-125.2 227.4l-211.4 335.6h-93.2V742.9h82.2zm110.2-141.2c4 31 14 62.1 61.1 62.1 46.1 0 57.1-29 61.1-62.1h67.1c-5 66.1-45.1 107.2-130.2 107.2-82.1 0-121.2-41.1-126.2-107.2h67.1zM3748.7 1396.1c-32.1 16-96.2 32.1-178.3 32.1-190.3 0-333.6-120.2-333.6-341.6 0-211.4 143.3-354.6 352.6-354.6 84.1 0 137.2 18 160.3 30l-21 71.1c-33.1-16-80.1-28-136.2-28-158.3 0-263.5 101.2-263.5 278.5 0 165.3 95.2 271.5 259.5 271.5 53.1 0 107.2-11 142.3-28.1l17.9 69.1zM3857.9 752c38.1-8 98.2-14 159.3-14 87.2 0 143.3 15 185.3 49.1 35.1 26 56.1 66.1 56.1 119.2 0 65.1-43.1 122.2-114.2 148.3v2c64.1 16 139.3 69.1 139.3 169.3 0 58.1-23 102.2-57.1 135.2-47.1 43.1-123.2 63.1-233.4 63.1-60.1 0-106.2-4-135.2-8l-.1-664.2zm87.2 276.5h79.1c92.2 0 146.3-48.1 146.3-113.2 0-79.1-60.1-110.2-148.3-110.2-40.1 0-63.1 3-77.1 6v217.4zm0 323.5c17 3 42.1 4 73.1 4 90.2 0 173.3-33.1 173.3-131.2 0-92.2-79.1-130.2-174.3-130.2h-72.1V1352zM4750.5 1101.6H4488V1345h292.5v73.1h-379.7V743h364.6v73.1H4488v213.4h262.5v72.1zM5027 817.1h-205.4V743h499.9v74.1h-206.4v601.1H5027V817.1z"/></svg>