<svg width="32" height="32" viewBox="0 0 32 32" fill="none" xmlns="http://www.w3.org/2000/svg">
<g clip-path="url(#clip0)">
<path d="M16 0.00309622C7.35364 -0.167387 0.198959 6.68919 0.00154114 15.3349C0.0241014 19.7359 1.97285 23.9064 5.33433 26.7471V31.3333C5.33433 31.7015 5.6328 32 6.00096 32C6.12588 32 6.24831 31.9648 6.35423 31.8987L10.0699 29.5776C11.9629 30.3016 13.9732 30.6709 16 30.6668C24.6463 30.8373 31.801 23.9807 31.9984 15.335C31.801 6.68919 24.6463 -0.167387 16 0.00309622Z" fill="#2196F3"/>
<path d="M26.5323 10.9354C26.3339 10.6695 25.9703 10.5899 25.6791 10.7487L18.7464 14.5283L14.4335 10.83C14.1691 10.6033 13.7746 10.6183 13.5283 10.8647L5.5291 18.8639C5.26956 19.125 5.27081 19.5471 5.53198 19.8066C5.74077 20.0142 6.06092 20.0601 6.31971 19.9198L13.2523 16.1402L17.5692 19.8398C17.8337 20.0665 18.2282 20.0515 18.4745 19.8051L26.4737 11.8059C26.7068 11.5706 26.7318 11.1998 26.5323 10.9354Z" fill="#FAFAFA"/>
</g>
<defs>
<clipPath id="clip0">
<rect width="32" height="32" fill="white"/>
</clipPath>
</defs>
</svg>
