<svg width="32" height="32" viewBox="0 0 32 32" fill="none" xmlns="http://www.w3.org/2000/svg">
<path d="M31.0777 19.397C31.3077 18.3542 31.4296 17.2763 31.4296 16.1675C31.4296 7.85777 24.5986 1.11981 16.1699 1.11981C15.2811 1.11981 14.4092 1.19581 13.5613 1.33979C12.1977 0.491921 10.5838 0 8.85416 0C3.96494 0 0.00354004 3.90736 0.00354004 8.7286C0.00354004 10.3384 0.448454 11.8461 1.21934 13.1429C1.01638 14.1197 0.910392 15.1316 0.910392 16.1675C0.910392 24.4802 7.74138 30.9672 16.1691 30.9672C17.1239 30.9672 18.0578 30.8802 18.9626 30.7152C20.2094 31.3751 21.6332 32 23.147 32C28.0352 32 31.9966 28.0936 31.9966 23.2724C31.9966 21.8816 31.6656 20.5648 31.0777 19.397Z" fill="#00AFF0"/>
<path d="M23.1298 22.3095C22.5409 23.1464 21.679 23.8043 20.5443 24.2772C19.4094 24.7541 18.0657 24.9901 16.5109 24.9901C14.6463 24.9901 13.1085 24.6661 11.8956 24.0172C11.0378 23.5513 10.3389 22.9274 9.80098 22.1495C9.26501 21.3716 8.99615 20.6138 8.99615 19.8768C8.99615 19.4509 9.15716 19.0849 9.47907 18.7819C9.80098 18.475 10.212 18.3241 10.7089 18.3241C11.1129 18.3241 11.4558 18.441 11.7337 18.68C12.0137 18.917 12.2527 19.2679 12.4486 19.7348C12.6896 20.2898 12.9485 20.7527 13.2295 21.1236C13.5075 21.4945 13.9014 21.8024 14.4073 22.0434C14.9152 22.2824 15.5821 22.4043 16.4059 22.4043C17.5398 22.4043 18.4616 22.1623 19.1715 21.6754C19.8794 21.1905 20.2353 20.5816 20.2353 19.8546C20.2353 19.2787 20.0433 18.8077 19.6614 18.4508C19.2784 18.0909 18.7845 17.8159 18.1786 17.627C17.5736 17.436 16.7638 17.234 15.748 17.0211C14.3911 16.7301 13.2543 16.3861 12.3405 15.9962C11.4257 15.6033 10.6978 15.0704 10.1619 14.3955C9.62393 13.7176 9.35595 12.8778 9.35595 11.8749C9.35595 10.9171 9.63887 10.0683 10.2068 9.32539C10.7737 8.58152 11.5926 8.01064 12.6684 7.61064C13.7422 7.21076 15.0061 7.01175 16.4568 7.01175C17.6166 7.01175 18.6204 7.14475 19.4673 7.40768C20.3142 7.67368 21.0151 8.02557 21.5729 8.46456C22.1318 8.90354 22.5407 9.36339 22.7977 9.84631C23.0557 10.3263 23.1846 10.8002 23.1846 11.2561C23.1846 11.6749 23.0246 12.055 22.7027 12.3899C22.3808 12.7259 21.9788 12.8948 21.4979 12.8948C21.0589 12.8948 20.726 12.7928 20.498 12.5919C20.27 12.3899 20.0231 12.06 19.7581 11.601C19.4131 10.9451 19.0023 10.4332 18.5204 10.0663C18.0384 9.69837 17.2666 9.51441 16.2007 9.51441C15.2139 9.51441 14.416 9.71243 13.81 10.1133C13.2041 10.5112 12.9002 10.9931 12.9002 11.554C12.9002 11.9 13.0052 12.2019 13.2102 12.4548C13.4151 12.7097 13.6991 12.9248 14.062 13.1058C14.4209 13.2878 14.7868 13.4298 15.1558 13.5347C15.5247 13.6377 16.1357 13.7866 16.9875 13.9846C18.0513 14.2136 19.0161 14.4675 19.88 14.7435C20.7429 15.0205 21.4788 15.3575 22.0847 15.7503C22.6897 16.1463 23.1636 16.6482 23.5025 17.2541C23.8414 17.8581 24.0124 18.5988 24.0124 19.4768C24.0128 20.5268 23.7169 21.4716 23.1298 22.3095Z" fill="white"/>
</svg>
