<svg width="32" height="32" viewBox="0 0 32 32" fill="none" xmlns="http://www.w3.org/2000/svg">
<g clip-path="url(#clip0)">
<path d="M19.2004 0H12.7996C6.62302 0 1.59814 5.02488 1.59814 11.2014V16.0021C1.59814 20.3384 4.09902 24.2736 7.99896 26.1246V31.4707C7.99896 31.9349 8.57964 32.1776 8.90952 31.8479L13.5538 27.2035H19.2003C25.3768 27.2035 30.4018 22.1786 30.4018 16.0021V11.2014C30.4018 5.02488 25.3768 0 19.2004 0Z" fill="#665CAC"/>
<path d="M24.0532 19.8813L23.5736 17.2834C23.5339 17.0688 23.3677 16.9 23.1537 16.8572L19.382 16.1029C19.2068 16.068 19.0263 16.1227 18.9001 16.2488L17.3678 17.7811C14.786 16.6243 13.3532 15.1883 12.0924 12.4958L13.6198 10.9684C13.7458 10.8423 13.8006 10.6614 13.7657 10.4866L13.0113 6.71481C12.9685 6.50087 12.7997 6.3345 12.5851 6.29487L9.98722 5.81537C9.9161 5.80231 9.84285 5.80369 9.77222 5.81975C9.08629 5.97556 8.46041 6.32119 7.96222 6.8195C7.0996 7.68212 6.76991 8.94087 7.00891 10.4597C7.4101 13.0101 8.6596 16.5593 10.9649 18.8739L10.9964 18.9051C13.3092 21.2088 16.8585 22.4584 19.409 22.8597C19.7303 22.9103 20.0397 22.9354 20.3365 22.9354C21.4424 22.9354 22.369 22.5865 23.0493 21.9063C23.5475 21.4081 23.8932 20.7822 24.049 20.0964C24.0648 20.0257 24.0663 19.9526 24.0532 19.8813Z" fill="white"/>
<path d="M13.0981 11.49L13.6196 10.9684L13.6202 10.9678L13.0981 11.4899L13.0981 11.49Z" fill="#E5E5E5"/>
<path d="M18.9001 16.2482L18.3735 16.7748L18.3735 16.7749L18.9002 16.2483L18.9001 16.2482Z" fill="#E5E5E5"/>
<path d="M21.342 21.9295C21.0453 21.9295 20.7358 21.9044 20.4145 21.8538C17.8641 21.4526 14.3148 20.2029 12.0019 17.8992L11.9704 17.868C9.66514 15.5534 8.41564 12.0042 8.01445 9.45381C7.82139 8.22674 7.99989 7.16956 8.53045 6.35374C8.32726 6.48931 8.13657 6.64481 7.96189 6.81949C7.09926 7.68212 6.76957 8.94087 7.00857 10.4597C7.40976 13.0101 8.65926 16.5593 10.9646 18.8739L10.9961 18.9051C13.3088 21.2088 16.8581 22.4584 19.4086 22.8597C19.7299 22.9103 20.0394 22.9354 20.3361 22.9354C21.4421 22.9354 22.3686 22.5866 23.049 21.9063C23.2236 21.7316 23.3791 21.541 23.5146 21.3378C22.9123 21.7296 22.1786 21.9295 21.342 21.9295Z" fill="#E5E5E5"/>
<path d="M17.0668 9.06775C16.7722 9.06775 16.5334 9.30656 16.5334 9.60112C16.5334 9.89569 16.7722 10.1345 17.0668 10.1345C18.2433 10.1345 19.2004 11.0916 19.2004 12.2681C19.2004 12.5587 19.4432 12.8015 19.7338 12.8015C20.0244 12.8015 20.2672 12.5587 20.2672 12.2681C20.2672 10.5034 18.8315 9.06775 17.0668 9.06775Z" fill="white"/>
<path d="M17.0668 6.93417C16.8695 6.93417 16.6704 6.94511 16.4749 6.96667C16.182 6.99899 15.9709 7.26255 16.0032 7.55542C16.0355 7.8483 16.2996 8.05892 16.5919 8.02711C16.7487 8.0098 16.9084 8.00099 17.0668 8.00099C19.4197 8.00099 21.334 9.91524 21.334 12.2682C21.334 12.4266 21.3252 12.5864 21.3079 12.7431C21.276 13.0319 21.4906 13.3 21.7795 13.3319C22.0684 13.3637 22.3364 13.1491 22.3683 12.8602C22.3899 12.6647 22.4008 12.4655 22.4008 12.2682C22.4008 9.32705 20.008 6.93417 17.0668 6.93417Z" fill="white"/>
<path d="M17.0672 4.80057C16.8766 4.80057 16.6835 4.80782 16.4935 4.82226C16.1998 4.84451 15.9796 5.10076 16.0019 5.39444C16.0241 5.68819 16.2812 5.90832 16.5741 5.88607C16.7374 5.87363 16.9033 5.86738 17.0672 5.86738C20.5967 5.86738 23.468 8.73876 23.468 12.2682C23.468 12.7676 23.4104 13.2647 23.2968 13.7457C23.2316 14.0213 23.4013 14.3078 23.6747 14.3827C23.9622 14.4614 24.2665 14.2811 24.335 13.9911C24.4676 13.4298 24.5348 12.8501 24.5348 12.2682C24.5348 8.15051 21.1849 4.80057 17.0672 4.80057Z" fill="white"/>
</g>
<defs>
<clipPath id="clip0">
<rect width="32" height="32" fill="white"/>
</clipPath>
</defs>
</svg>
