<svg width="17" height="24" fill="none" xmlns="http://www.w3.org/2000/svg"><path d="M16.978 1.138c0-.4-.22-.743-.52-.956-.053-.026-.08-.052-.138-.078A1.245 1.245 0 0 0 15.801 0H1.203C.546 0 0 .504 0 1.169v2.95h6.107l-.631-.613c-.166-.16-.139-.4 0-.56l.411-.4a.36.36 0 0 1 .273-.104c.108 0 .22.026.3.104l2.027 1.999c.08.078.107.16.107.265a.551.551 0 0 1-.107.29L6.46 7.096a.406.406 0 0 1-.577 0l-.412-.4a.378.378 0 0 1 0-.56l.658-.613H.027v17.31C.027 23.47.546 24 1.203 24h14.594c.657 0 1.203-.504 1.203-1.169l-.022-21.693zm-5.07 6.278c.824 0 1.509.665 1.509 1.465 0 .799-.685 1.433-1.508 1.433s-1.476-.638-1.476-1.433c0-.796.626-1.465 1.476-1.465zM6.658 17.544c-.327.373-.546.504-.984.478l-3.315-.052c-.412-.026-.739-.426-.712-.77.027-.477.358-.742.823-.742l3.038-.026.711-.934 1.289 1.012-.85 1.034zm7.936-2.42l-2.71-.582a.663.663 0 0 1-.412-.348l-.631-1.356c-.054.053-1.45 2.286-1.45 2.286l1.588 1.168c.493.4.546.77.358 1.278L9.695 21.24a.78.78 0 0 1-.958.452c-.411-.135-.684-.587-.492-.982l1.423-3.324-2.134-1.568c-.577-.348-.792-1.012-.385-1.677l1.915-3.033-1.396-.478-2.519 1.226c-.326.186-.738.026-.903-.265-.14-.266-.027-.64.246-.8l2.63-1.33c.139-.078.273-.134.412-.134.138 0 .273.026.384.052l2.22.69c.08.027.138.053.192.105l1.203.878c.166.104.22.291.273.426l.604 1.833 2.438.613c.327.078.492.373.492.664-.035.27-.416.617-.747.535z" fill="#C7C7C7"/></svg>