<svg width="22" height="22" viewBox="0 0 22 22" fill="none" xmlns="http://www.w3.org/2000/svg"><path d="M12.0192 17.9643C11.6821 18.2959 11.3411 18.6296 11 18.968C10.659 18.6296 10.3179 18.2959 9.98087 17.9643C8.01572 16.0362 6.18854 14.2409 4.86146 12.375H3.21326C4.66412 14.6741 6.80618 16.7762 9.01737 18.9459C9.51217 19.4313 10.013 19.9227 10.5139 20.4236C10.6482 20.5579 10.8241 20.625 11 20.625C11.1759 20.625 11.3518 20.5578 11.4861 20.4236C11.9869 19.9227 12.4877 19.4313 12.9826 18.9459C15.1938 16.7762 17.3359 14.6741 18.7867 12.375H17.1385C15.8115 14.2408 13.9843 16.0362 12.0192 17.9643Z" fill="#C1C1C1"/><path d="M20.099 9.62501C20.4277 8.64437 20.625 7.62142 20.625 6.53127C20.625 4.73198 18.8539 1.37504 15.4688 1.37504C13.6332 1.37504 12.0561 2.14311 11 3.51876C9.94388 2.14307 8.3668 1.375 6.53126 1.375C3.14615 1.375 1.37503 4.73194 1.37503 6.53123C1.37503 7.62142 1.57233 8.64433 1.90107 9.62496H0V11H7.91969L10.4629 14.1797C10.5952 14.3441 10.7932 14.4375 11 14.4375C11.0403 14.4375 11.0806 14.4341 11.1209 14.4267C11.3686 14.3824 11.5727 14.2065 11.6519 13.9675L13.2995 9.02474L14.5752 10.7247C14.7047 10.8979 14.9088 11 15.125 11H22V9.62501H20.099ZM15.4687 9.62501L13.6124 7.15028C13.4593 6.94549 13.2055 6.84011 12.9524 6.88372C12.6999 6.92468 12.4911 7.10258 12.4106 7.34497L10.7476 12.3341L8.78713 9.88283C8.65623 9.71971 8.45881 9.62501 8.25001 9.62501H3.35603C2.97677 8.64235 2.75002 7.62183 2.75002 6.53127C2.75002 5.48995 3.91285 2.75003 6.53126 2.75003C8.94087 2.75003 10.0292 4.40701 10.385 5.12C10.6173 5.58593 11.3827 5.58593 11.615 5.12C11.9708 4.40701 13.0592 2.75003 15.4688 2.75003C18.0872 2.75003 19.25 5.48995 19.25 6.53127C19.25 7.62187 19.0233 8.64235 18.644 9.62501H15.4687Z" fill="#C1C1C1"/></svg>
