<svg width="22" height="22" viewBox="0 0 22 22" fill="none" xmlns="http://www.w3.org/2000/svg">
<path d="M4.4871 2.53516H4.25391V0.859375C4.25391 0.384742 3.86916 0 3.39453 0C2.9199 0 2.53516 0.384742 2.53516 0.859375V2.53516H2.30196C1.02975 2.53516 0 3.56469 0 4.83712V7.02225C0 8.29447 1.02953 9.32422 2.30196 9.32422H2.53516V21.1406C2.53516 21.6153 2.9199 22 3.39453 22C3.86916 22 4.25391 21.6153 4.25391 21.1406V9.32422C4.35965 9.30647 5.30664 9.45824 6.1148 8.65C6.5496 8.21524 6.78906 7.63714 6.78906 7.02225V4.83712C6.78906 3.5649 5.75953 2.53516 4.4871 2.53516ZM5.07031 7.02225C5.07031 7.34456 4.80945 7.60547 4.4871 7.60547H2.30196C1.97966 7.60547 1.71875 7.34461 1.71875 7.02225V4.83712C1.71875 4.51481 1.97961 4.25391 2.30196 4.25391H4.4871C4.80941 4.25391 5.07031 4.51477 5.07031 4.83712V7.02225ZM19.698 5.07031H19.4648V0.859375C19.4648 0.384742 19.0801 0 18.6055 0C18.1308 0 17.7461 0.384742 17.7461 0.859375V5.07031H17.5129C16.2294 5.07031 15.2109 6.11321 15.2109 7.37228V9.55741C15.2109 10.8296 16.2405 11.8594 17.5129 11.8594H17.7461V21.1406C17.7461 21.6153 18.1308 22 18.6055 22C19.0801 22 19.4648 21.6153 19.4648 21.1406V11.8594H19.698C20.9703 11.8594 22 10.8298 22 9.55741V7.37228C22 6.10006 20.9705 5.07031 19.698 5.07031ZM20.2812 9.55741C20.2812 9.87972 20.0204 10.1406 19.698 10.1406H17.5129C17.1906 10.1406 16.9297 9.87976 16.9297 9.55741V7.37228C16.9297 7.05027 17.1905 6.78906 17.5129 6.78906H19.698C20.0203 6.78906 20.2812 7.04993 20.2812 7.37228V9.55741ZM12.0926 12.6758H11.8594V0.859375C11.8594 0.384742 11.4746 0 11 0C10.5254 0 10.1406 0.384742 10.1406 0.859375V12.6758H9.90743C8.63521 12.6758 7.60547 13.7053 7.60547 14.9777V17.1629C7.60547 18.4351 8.635 19.4648 9.90743 19.4648H10.1406V21.1406C10.1406 21.6153 10.5254 22 11 22C11.4746 22 11.8594 21.6153 11.8594 21.1406V19.4648H12.0926C13.376 19.4648 14.3945 18.4219 14.3945 17.1629V14.9777C14.3945 13.7055 13.365 12.6758 12.0926 12.6758ZM12.6758 17.1629C12.6758 17.4849 12.4149 17.7461 12.0926 17.7461H9.90743C9.58512 17.7461 9.32422 17.4852 9.32422 17.1629V14.9777C9.32422 14.6554 9.58508 14.3945 9.90743 14.3945H12.0926C12.4149 14.3945 12.6758 14.6554 12.6758 14.9777V17.1629Z" fill="#C1C1C1"/>
</svg>
