<svg width="20" height="20" fill="none" xmlns="http://www.w3.org/2000/svg"><g clip-path="url(#clip0)" fill="#C7C7C7"><path d="M5.927 1.97a2 2 0 0 0-2-2H2.02a2 2 0 0 0-2 2v15.99a2 2 0 0 0 2 2h16.03a2 2 0 0 0 2-2v-1.934a2 2 0 0 0-2-2H5.927V1.969zm-2.174-.83a1 1 0 0 1 1 1v.172H3.58v1.171h1.173v1.172H2.406v1.171h2.347v1.171H3.58V8.17h1.173V9.34H2.406v1.172h2.347v1.171H3.58v1.171h1.173v1.516l-3.56 3.583V2.14a1 1 0 0 1 1-1h1.56zm3.348 14.057v1.172h1.174v-1.172h1.173v2.382h1.174v-2.382h1.174v1.172h1.173v-1.172h1.174v2.382h1.174v-2.382h1.173v1.172h1.174v-1.172h.213a1 1 0 0 1 1 1v1.592a1 1 0 0 1-1 1H2.015l3.57-3.592H7.1z"/><path d="M8.102 9.392l-1.244 3.727 3.734-1.242 8.74-8.723a1 1 0 0 0 0-1.416L18.258.666a1 1 0 0 0-1.413 0L8.102 9.392zm7.79-6.118l.83.828-5.617 5.606-.83-.828 5.617-5.606zm-7.179 7.993l.415-1.242.317-.317.83.829-.317.316-1.245.414zm8.839-7.993l-.83-.828.83-.828.83.828-.83.828z"/></g><defs><clipPath id="clip0"><path fill="#fff" d="M0 0h20v20H0z"/></clipPath></defs></svg>