<svg width="20" height="20" fill="none" xmlns="http://www.w3.org/2000/svg"><g clip-path="url(#clip0)" fill="#C7C7C7"><path d="M8.242 0v1.205a5.28 5.28 0 0 0-4.687 5.24v.765a1.76 1.76 0 0 0-1.172 1.657v.901a2.345 2.345 0 0 0-1.172 2.029 2.346 2.346 0 0 0 2.344 2.344v.395A5.72 5.72 0 0 0 7.47 19.97l.09.03h4.878l.09-.03a5.72 5.72 0 0 0 3.916-5.434v-.395a2.346 2.346 0 0 0 2.344-2.344c0-.866-.472-1.623-1.172-2.029v-.9a1.76 1.76 0 0 0-1.172-1.658v-.765a5.28 5.28 0 0 0-4.687-5.24V0H8.242zm1.172 1.172h1.172v5.937H9.414V1.172zM8.242 2.386v4.723H4.727v-.664a4.108 4.108 0 0 1 3.515-4.06zm-5.86 9.41c0-.645.526-1.171 1.173-1.171v2.344a1.173 1.173 0 0 1-1.172-1.172zm12.891 2.74a4.55 4.55 0 0 1-3.027 4.292H7.754a4.55 4.55 0 0 1-3.027-4.292v-3.911h10.546v3.911zm1.172-1.567v-2.344c.646 0 1.172.526 1.172 1.172 0 .646-.526 1.172-1.172 1.172zM3.555 9.453v-.586c0-.323.263-.586.586-.586h11.718c.324 0 .586.263.586.586v.586H3.555zm11.718-3.008v.664h-3.515V2.386a4.108 4.108 0 0 1 3.515 4.06z"/><path d="M8.414 15.484l-1.172 1.172.829.829 1-1h1.858l1 1 .829-.829-1.343-1.343H10a.587.587 0 0 1 0-1.172v-1.172a1.76 1.76 0 0 0-1.586 2.515zM11.758 11.797h1.172v1.172h-1.172v-1.172zM7.07 11.797h1.172v1.172H7.07v-1.172z"/></g><defs><clipPath id="clip0"><path fill="#fff" d="M0 0h20v20H0z"/></clipPath></defs></svg>