<svg width="22" height="22" viewBox="0 0 22 22" fill="none" xmlns="http://www.w3.org/2000/svg">
<path d="M5.33364 9.26457C5.94454 9.18251 6.55544 9.39223 6.98854 9.82533L8.08269 10.9195L9.11757 9.88915L7.62223 8.39838C7.38973 8.16587 7.38973 7.78748 7.62223 7.55497C7.85474 7.32246 8.23313 7.32246 8.46564 7.55497L9.96097 9.0503L10.9958 8.01998L9.89714 6.92128C9.46404 6.48818 9.25433 5.87272 9.33639 5.26638C9.51875 3.88046 9.07653 2.43072 8.0143 1.36393C6.92927 0.278898 5.44306 -0.15876 4.03434 0.050951C3.81096 0.0828636 3.71978 0.360959 3.87934 0.520522L5.28805 1.92924C5.95822 2.5994 5.95822 3.68443 5.28805 4.35003L4.42185 5.21623C3.75169 5.8864 2.66666 5.8864 2.00106 5.21623L0.587783 3.80752C0.42822 3.64796 0.154683 3.73914 0.118212 3.96252C-0.0914996 5.37124 0.346159 6.85745 1.43119 7.94248C2.49798 9.00471 3.94772 9.44693 5.33364 9.26457Z" fill="#C1C1C1"/>
<path d="M14.0959 11.1201L13.061 12.1504L19.2065 18.2959C19.439 18.5284 19.439 18.9068 19.2065 19.1393C18.974 19.3718 18.5956 19.3718 18.3631 19.1393L12.2176 12.9938L11.1827 14.0242L17.5151 20.3565C18.3175 21.1589 19.6168 21.1544 20.4192 20.352C21.2215 19.5496 21.2215 18.2503 20.4237 17.4479L14.0959 11.1201Z" fill="#C1C1C1"/>
<path d="M16.471 7.01696H19.2019L21.9327 1.5599L20.5695 0.196777L15.1079 2.92302V5.65383L7.68597 13.053L6.35019 11.7218L0.970642 17.1013C-0.150858 18.2228 -0.150858 20.0373 0.970642 21.1588C2.09214 22.2803 3.9066 22.2803 5.0281 21.1588L10.4077 15.7792L9.04453 14.4161L16.471 7.01696Z" fill="#C1C1C1"/>
</svg>
