<svg width="24" height="24" fill="none" xmlns="http://www.w3.org/2000/svg"><path d="M10.497 1.879H5.612a.728.728 0 0 0-.727.727v3.758c0 .4.326.727.727.727h.376c.194 0 .351 0 .351-.352 0-.351-.157-.351-.351-.351h-.376a.024.024 0 0 1-.024-.024V2.606c0-.013.01-.024.024-.024h4.885c.194 0 .351 0 .351-.352 0-.351-.157-.351-.351-.351zM12.376 1.879H12c-.194 0-.352 0-.352.351 0 .352.158.352.352.352h.376c.013 0 .024.01.024.024v3.758c0 .013-.011.024-.024.024H7.49c-.194 0-.352 0-.352.351 0 .352.158.352.352.352h4.885a.728.728 0 0 0 .727-.727V2.606a.728.728 0 0 0-.727-.727zM5.988 16.158c-.608 0-1.103.495-1.103 1.103a1.104 1.104 0 0 0 2.206 0c0-.608-.495-1.103-1.103-1.103zm0 1.503a.4.4 0 1 1 0-.801.4.4 0 0 1 0 .8zM8.994 9.018A2.985 2.985 0 0 0 6.012 12a2.985 2.985 0 0 0 2.982 2.982A2.985 2.985 0 0 0 11.976 12a2.985 2.985 0 0 0-2.982-2.982zm0 5.26A2.281 2.281 0 0 1 6.715 12 2.281 2.281 0 0 1 8.994 9.72 2.281 2.281 0 0 1 11.273 12a2.281 2.281 0 0 1-2.28 2.279z" fill="#C7C7C7"/><path d="M10.182 12.69l-1.879-1.878a.352.352 0 1 0-.497.497l1.879 1.879a.35.35 0 0 0 .497 0 .352.352 0 0 0 0-.498z" fill="#C7C7C7"/><path d="M20.267 3.758h-.025V2.606a.352.352 0 0 0-.703 0v1.152h-.024a.728.728 0 0 0-.727.727V9.37c0 .485.315.898.751 1.045v9.288a3.598 3.598 0 0 1-4.176 3.546 4.296 4.296 0 0 0 1.873-3.546v-9.288c.437-.147.752-.56.752-1.045V4.485a.728.728 0 0 0-.727-.727h-.025V2.606a.352.352 0 1 0-.703 0v1.152h-.024a.728.728 0 0 0-.727.727V9.37c0 .485.315.898.751 1.045v9.288a3.598 3.598 0 0 1-2.09 3.263 3.603 3.603 0 0 1-2.05-2.724h1.11a1.48 1.48 0 0 0 1.479-1.478V1.479A1.48 1.48 0 0 0 13.502 0H4.486a1.48 1.48 0 0 0-1.479 1.479v17.285a1.48 1.48 0 0 0 1.479 1.479h4.191a4.303 4.303 0 0 0 5.766 3.486 4.302 4.302 0 0 0 5.8-4.026v-9.288c.437-.147.752-.56.752-1.045V4.485a.728.728 0 0 0-.727-.727zM16.485 9.37V4.485c0-.014.01-.024.024-.024h.752c.013 0 .024.01.024.024V9.37a.4.4 0 0 1-.8 0zm-7.491 9.418a.4.4 0 0 1-.4-.4V17.26a.4.4 0 0 1 .8 0v1.127a.4.4 0 0 1-.4.4zm.351.645c.437-.147.752-.56.752-1.045V17.26c0-.609-.495-1.104-1.103-1.104s-1.103.495-1.103 1.104v1.127c0 .485.315.898.751 1.045v.106H4.485a.777.777 0 0 1-.776-.775V1.479c0-.428.348-.776.776-.776h9.018c.428 0 .776.348.776.776v17.285a.777.777 0 0 1-.776.775H12.35v-.106c.437-.147.752-.56.752-1.045V17.26c0-.609-.495-1.104-1.103-1.104s-1.103.495-1.103 1.104v1.127c0 .485.315.898.751 1.045v.106H9.345v-.106zM12 18.788a.4.4 0 0 1-.4-.4V17.26a.4.4 0 0 1 .8 0v1.127a.4.4 0 0 1-.4.4zm.94 4.509a3.6 3.6 0 0 1-3.554-3.055h2.296a4.301 4.301 0 0 0 1.84 3.007c-.19.031-.385.048-.583.048zM19.89 9.77a.4.4 0 0 1-.4-.4V4.485c0-.014.012-.024.025-.024h.752c.013 0 .024.01.024.024V9.37a.4.4 0 0 1-.4.4z" fill="#C7C7C7"/></svg>