<svg width="22" height="22" viewBox="0 0 22 22" fill="none" xmlns="http://www.w3.org/2000/svg">
<path d="M7.13281 5.15625H13.6211C13.9771 5.15625 14.2656 4.86772 14.2656 4.51172C14.2656 4.15572 13.9771 3.86719 13.6211 3.86719H7.13281C6.77681 3.86719 6.48828 4.15572 6.48828 4.51172C6.48828 4.86772 6.77681 5.15625 7.13281 5.15625Z" fill="#C1C1C1"/>
<path d="M18.6991 1.85538L16.8438 3.71075V0.644531C16.8438 0.288528 16.5552 0 16.1992 0H4.51172C4.34119 0 4.17603 0.0686493 4.05585 0.188827L0.188827 4.05585C0.0666351 4.17804 0 4.34421 0 4.51172V18.7773C0 20.5543 1.44566 22 3.22266 22H16.1992C17.9762 22 19.4219 20.5543 19.4219 18.7773V17.4883C19.4219 17.1323 19.1333 16.8438 18.7773 16.8438H16.8438V9.17987L21.4337 4.58994C22.1875 3.83597 22.1875 2.60934 21.4337 1.85538C20.678 1.09973 19.4549 1.09973 18.6991 1.85538ZM3.86719 2.20064V3.86719H2.20064L3.86719 2.20064ZM5.15625 17.4883V18.7773C5.15625 19.8435 4.28882 20.7109 3.22266 20.7109C2.15649 20.7109 1.28906 19.8435 1.28906 18.7773C1.28906 18.5408 1.28906 5.67607 1.28906 5.15625H4.51172C4.86772 5.15625 5.15625 4.86772 5.15625 4.51172V1.28906H15.5547V4.99982L14.1092 6.44531H3.22266C2.86665 6.44531 2.57812 6.73384 2.57812 7.08984C2.57812 7.44585 2.86665 7.73438 3.22266 7.73438H12.8201L11.5311 9.02344H3.22266C2.86665 9.02344 2.57812 9.31197 2.57812 9.66797C2.57812 10.024 2.86665 10.3125 3.22266 10.3125H10.242L9.55165 11.0029C9.48099 11.0737 9.42761 11.1598 9.39606 11.2548L9.28041 11.6016H3.22266C2.86665 11.6016 2.57812 11.8901 2.57812 12.2461C2.57812 12.6021 2.86665 12.8906 3.22266 12.8906H8.85072L8.53265 13.845L8.1978 14.1797H3.22266C2.86665 14.1797 2.57812 14.4682 2.57812 14.8242C2.57812 15.1802 2.86665 15.4688 3.22266 15.4688H8.37538C8.58267 15.4688 8.75136 15.4493 8.92055 15.2799L9.44406 14.7564L12.0343 13.893C12.1291 13.8615 12.2154 13.8081 12.2862 13.7374L15.5547 10.4689V16.8438H5.80078C5.44478 16.8438 5.15625 17.1323 5.15625 17.4883ZM12.1432 12.0573L11.4822 12.7182L10.1149 13.1741L10.5708 11.8068L11.2316 11.1459L12.1432 12.0573ZM18.1328 18.1328V18.7773C18.1328 19.8435 17.2654 20.7109 16.1992 20.7109H5.79927C6.20462 20.172 6.44531 19.5021 6.44531 18.7773V18.1328H18.1328ZM19.1547 5.04581L13.0548 11.1459L12.1432 10.2343L18.2431 4.1344L19.1547 5.04581ZM20.5221 3.67836L20.0661 4.1344L19.1547 3.22299L19.6105 2.76695C19.862 2.51569 20.2708 2.51569 20.5221 2.76695C20.7734 3.01822 20.7734 3.42709 20.5221 3.67836Z" fill="#C1C1C1"/>
</svg>
