<svg width="16" height="16" fill="none" xmlns="http://www.w3.org/2000/svg"><path d="M16 15.375c0 .345-.28.625-.625.625H8a.625.625 0 1 1 0-1.25h7.375c.345 0 .625.28.625.625zm-.625-3.083h-4.917a.625.625 0 0 0 0 1.25h4.917a.625.625 0 1 0 0-1.25zm0-2.459h-2.458a.625.625 0 1 0 0 1.25h2.458a.625.625 0 1 0 0-1.25zm.442-5.079L4.754 15.817a.624.624 0 0 1-.441.183H.624A.625.625 0 0 1 0 15.375v-3.688c0-.165.066-.324.183-.441L11.246.183a.625.625 0 0 1 .883 0l3.688 3.688a.625.625 0 0 1 0 .883zm-1.326-.441l-2.803-2.804L1.25 11.946v2.804h2.804L14.49 4.312z" fill="#A1BF35"/></svg>