<svg width="28" height="30" viewBox="0 0 28 30" fill="none" xmlns="http://www.w3.org/2000/svg">
<g clip-path="url(#clip0)">
<path d="M22.4249 19.559C22.2266 19.3525 21.9577 19.2372 21.6764 19.2372C21.3956 19.2372 21.1266 19.3526 20.9278 19.559L19.5313 21.0101L12.7466 13.9634L14.1432 12.5133C14.557 12.0841 14.557 11.3882 14.1432 10.9591L10.0518 6.7104C9.84535 6.4959 9.57454 6.38806 9.30385 6.38806C9.03259 6.38806 8.76189 6.49584 8.55529 6.7104L7.15882 8.16158C5.39327 9.99592 7.98206 15.6565 12.9422 20.8071C16.8454 24.8599 21.0534 27.3887 23.5292 27.3887C24.1993 27.3887 24.7426 27.2033 25.1184 26.8125L25.1161 26.8096L26.5164 25.3623C26.9296 24.9327 26.9296 24.2372 26.5164 23.8076L22.4249 19.559Z" fill="#A1BF35"/>
<path d="M13.9997 26.1343C7.84262 26.1343 2.83367 20.9325 2.83367 14.5382C2.83367 7.76638 8.18862 2.9426 13.9997 2.9426C20.1573 2.9426 25.1664 8.14432 25.1664 14.5382C25.1664 16.0464 24.879 17.4842 24.3722 18.807L26.5103 21.0268C27.4549 19.0709 28 16.8716 28 14.5381C28 6.52171 21.7193 0 13.9997 0C6.2801 0 0 6.52171 0 14.5383C0 22.5547 6.2801 29.0769 13.9997 29.0769C15.8114 29.0769 17.5386 28.7063 19.1292 28.0525C18.0722 27.5099 16.9658 26.8082 15.8385 25.9634C15.2389 26.0673 14.6274 26.1343 13.9997 26.1343Z" fill="#A1BF35"/>
</g>
<defs>
<clipPath id="clip0">
<rect width="28" height="29.0769" fill="white"/>
</clipPath>
</defs>
</svg>
