<svg width="12" height="12" fill="none" xmlns="http://www.w3.org/2000/svg"><path d="M11.994 9.469a.58.58 0 0 1-.178.508l-1.69 1.676a.952.952 0 0 1-.298.216c-.122.06-.243.098-.362.115l-.076.006a1.733 1.733 0 0 1-.165.007c-.161 0-.421-.028-.781-.083-.36-.055-.8-.19-1.321-.406-.521-.216-1.112-.54-1.773-.972-.66-.432-1.363-1.025-2.108-1.779A13.92 13.92 0 0 1 1.768 7.08a11.948 11.948 0 0 1-.94-1.48 7.97 7.97 0 0 1-.534-1.232 6.538 6.538 0 0 1-.241-.953 3.146 3.146 0 0 1-.05-.629l.012-.254c.017-.118.055-.239.114-.362a.952.952 0 0 1 .216-.298l1.69-1.69A.56.56 0 0 1 2.44.004c.11 0 .208.032.292.096a.883.883 0 0 1 .216.235l1.36 2.579a.618.618 0 0 1 .063.444.792.792 0 0 1-.216.407l-.622.622a.212.212 0 0 0-.045.083.314.314 0 0 0-.019.095c.034.178.11.381.229.61.101.203.258.45.47.743.212.292.512.629.902 1.01.38.39.72.692 1.016.908.296.216.544.375.743.477.2.101.352.163.458.184l.158.031a.303.303 0 0 0 .083-.019.212.212 0 0 0 .083-.044l.724-.737a.778.778 0 0 1 .533-.203c.144 0 .258.025.343.076h.013l2.452 1.448c.178.11.283.25.317.42z" fill="#A1BF35"/></svg>