<svg width="89" height="88" viewBox="0 0 89 88" fill="none" xmlns="http://www.w3.org/2000/svg">
<path fill-rule="evenodd" clip-rule="evenodd" d="M85.4034 44C85.4034 66.6437 67.0471 85 44.4034 85C21.7598 85 3.40344 66.6437 3.40344 44C3.40344 21.3563 21.7598 3 44.4034 3C67.0471 3 85.4034 21.3563 85.4034 44ZM88.4034 44C88.4034 68.3005 68.704 88 44.4034 88C20.1029 88 0.403442 68.3005 0.403442 44C0.403442 19.6995 20.1029 0 44.4034 0C68.704 0 88.4034 19.6995 88.4034 44ZM68.2368 44L31.1118 23.375V64.625L68.2368 44Z" fill="white"/>
</svg>
