<svg width="50" height="50" viewBox="0 0 50 50" fill="none" xmlns="http://www.w3.org/2000/svg">
  <path fill-rule="evenodd" clip-rule="evenodd" d="M47.0001 24.5966C47.0001 36.5241 37.3309 46.1932 25.4035 46.1932C13.476 46.1932 3.80688 36.5241 3.80688 24.5966C3.80688 12.6691 13.476 3 25.4035 3C37.3309 3 47.0001 12.6691 47.0001 24.5966ZM50.0001 24.5966C50.0001 38.1809 38.9878 49.1932 25.4035 49.1932C11.8192 49.1932 0.806885 38.1809 0.806885 24.5966C0.806885 11.0123 11.8192 0 25.4035 0C38.9878 0 50.0001 11.0123 50.0001 24.5966ZM38.7266 24.5964L17.9733 13.0668V36.1261L38.7266 24.5964Z" fill="white"/>
</svg>