<svg width="15" height="14" fill="none" xmlns="http://www.w3.org/2000/svg"><path d="M14.491 6.925a1.657 1.657 0 0 0-1.221-.515h-.577V4.077c0-.243-.06-.51-.18-.802a2.125 2.125 0 0 0-.433-.693l-1.37-1.385a2.098 2.098 0 0 0-.686-.438 2.063 2.063 0 0 0-.793-.182H3.173a.83.83 0 0 0-.613.255.849.849 0 0 0-.252.62V6.41H1.73c-.475 0-.882.172-1.222.515C.17 7.268 0 7.68 0 8.16v3.792c0 .08.029.147.086.205a.276.276 0 0 0 .202.086h2.02v1.459c0 .243.084.45.252.62a.83.83 0 0 0 .613.255h8.654a.83.83 0 0 0 .613-.255.849.849 0 0 0 .253-.62v-1.459h2.019a.276.276 0 0 0 .202-.086.282.282 0 0 0 .086-.205V8.16c0-.48-.17-.892-.509-1.235zM11.54 13.41H3.462v-2.333h8.077v2.333zm0-5.833H3.462V1.744H9.23v1.458c0 .243.084.45.252.62a.83.83 0 0 0 .613.255h1.443v3.5zm2.136.993a.552.552 0 0 1-.405.174.552.552 0 0 1-.406-.174.563.563 0 0 1-.171-.41c0-.158.057-.295.17-.41a.551.551 0 0 1 .407-.173c.156 0 .291.058.405.173a.564.564 0 0 1 .171.41.563.563 0 0 1-.17.41z" fill="#A1BF35"/></svg>