<svg xmlns="http://www.w3.org/2000/svg" xmlns:xlink="http://www.w3.org/1999/xlink" x="0" y="0" width="10px" height="16px" viewBox="0 0 10 16" style="enable-background:new 0 0 10 16;" xml:space="preserve">
  <path d="M5,14c-0.6,0-1,0.4-1,1s0.4,1,1,1c0.6,0,1-0.4,1-1S5.6,14,5,14z M5,0C2.2,0,0,2.1,0,4.7c0,0.5,0.4,0.8,0.9,0.8 s0.9-0.4,0.9-0.8c0-1.7,1.5-3.1,3.2-3.1s3.2,1.4,3.2,3.1c0,1-0.9,2.5-2.4,2.9C4.8,8,4.1,9,4.1,10v1.1C4.1,11.6,4.5,12,5,12 s0.9-0.4,0.9-0.8V10c0-0.4,0.2-0.7,0.6-0.8c2-0.7,3.5-2.6,3.5-4.5C10,2.1,7.8,0,5,0z"/>
</svg>