<svg width="18" height="16" viewBox="0 0 18 16" fill="none" xmlns="http://www.w3.org/2000/svg">
<path d="M7.99761 1C11.855 1 14.9918 4.14011 14.9918 7.9975V8.02064L16.3768 5.93494C16.5123 5.73 16.7899 5.67381 16.9949 5.80933C17.1998 5.94485 17.256 6.22251 17.1205 6.42744L15.1108 9.45187C15.0381 9.56094 14.9224 9.63036 14.7935 9.64688C14.7736 9.65019 14.7571 9.65019 14.7373 9.65019C14.6282 9.65019 14.5224 9.61053 14.4398 9.5345L11.6468 7.0191C11.465 6.85383 11.4484 6.57288 11.6137 6.38778C11.779 6.20598 12.0599 6.18945 12.245 6.35472L14.0993 8.03055V7.9975C14.0993 4.62931 11.3625 1.89245 7.99761 1.89245C4.63273 1.89245 1.89256 4.62931 1.89256 7.9975C1.89256 11.3657 4.62942 14.1025 7.9943 14.1025C9.62386 14.1025 11.1576 13.4679 12.3078 12.3143C12.483 12.1391 12.764 12.1391 12.9392 12.3143C13.1143 12.4895 13.1143 12.7705 12.9392 12.9457C11.617 14.2678 9.86184 14.995 7.9943 14.995C4.14022 14.995 1.00011 11.8582 1.00011 7.9975C1.00011 4.13681 4.14022 1 7.99761 1Z" fill="#A1BF35" stroke="#A1BF35" stroke-width="0.5"/>
</svg>
