<svg width="16" height="16" viewBox="0 0 16 16" fill="none" xmlns="http://www.w3.org/2000/svg">
<path d="M15.8173 4.49027L12.1252 0.797906C12.0032 0.676091 11.8588 0.615234 11.6923 0.615234C11.6157 0.615234 11.5353 0.631265 11.4521 0.663226C11.202 0.772243 11.0769 0.961347 11.0769 1.23057V3.07686H9.53842C8.85899 3.07686 8.22904 3.11212 7.64903 3.18261C7.06896 3.25306 6.55772 3.35076 6.11542 3.47588C5.67309 3.60076 5.27404 3.75628 4.91826 3.94219C4.56255 4.12803 4.25968 4.32518 4.00962 4.53355C3.75952 4.74188 3.54004 4.97911 3.35094 5.24514C3.16173 5.51113 3.01119 5.77231 2.89891 6.02873C2.78683 6.28523 2.69711 6.56725 2.62975 6.8749C2.56233 7.18262 2.5175 7.47105 2.49507 7.7402C2.47264 8.00943 2.46143 8.30118 2.46143 8.61513C2.46143 8.97425 2.5176 9.36518 2.62975 9.78842C2.74193 10.2114 2.86533 10.5767 2.99994 10.8845C3.13452 11.192 3.29325 11.511 3.47595 11.8411C3.65862 12.1712 3.78519 12.3906 3.85571 12.4996C3.9262 12.6084 3.99362 12.708 4.05768 12.7977C4.12177 12.881 4.20509 12.9226 4.3076 12.9226C4.33337 12.9226 4.37166 12.9164 4.42302 12.9035C4.57043 12.8329 4.63449 12.7242 4.61526 12.5767C4.32683 10.4228 4.56406 8.90662 5.32681 8.02849C6.0641 7.18875 7.46791 6.76882 9.53832 6.76882H11.0769V8.61493C11.0769 8.88439 11.2019 9.0734 11.452 9.18245C11.5352 9.21447 11.6154 9.2304 11.6922 9.2304C11.8653 9.2304 12.0096 9.16955 12.1251 9.04783L15.8173 5.35544C15.939 5.23355 16 5.08944 16 4.92277C16 4.75623 15.939 4.61188 15.8173 4.49027Z" fill="#A1BF35"/>
<path d="M13.3365 9.84606C13.2144 9.79456 13.1024 9.82036 13 9.92294C12.8333 10.0768 12.6601 10.1955 12.4806 10.2787C12.365 10.3428 12.3075 10.4357 12.3075 10.5575V12.6154C12.3075 13.0384 12.1571 13.4003 11.8557 13.7018C11.5545 14.0031 11.1921 14.1538 10.7691 14.1538H2.76911C2.34597 14.1538 1.98379 14.0031 1.68251 13.7018C1.38118 13.4003 1.23061 13.0385 1.23061 12.6154V4.61523C1.23061 4.19213 1.38118 3.83008 1.68251 3.5288C1.98376 3.22748 2.34594 3.0769 2.76911 3.0769H3.84604C3.88447 3.0769 3.93583 3.064 3.99988 3.03841C4.35889 2.82041 4.78503 2.62804 5.27872 2.46139C5.44539 2.4294 5.52871 2.32688 5.52871 2.15371C5.52871 2.07039 5.4983 1.99842 5.43738 1.93739C5.37645 1.87664 5.30448 1.84619 5.22106 1.84619H2.76924C2.00642 1.84619 1.35414 2.11703 0.812458 2.65868C0.270842 3.2003 0 3.85258 0 4.6154V12.6153C0 13.3781 0.270842 14.0304 0.812491 14.572C1.35417 15.1137 2.00646 15.3846 2.76927 15.3846H10.7693C11.532 15.3846 12.1843 15.1137 12.726 14.572C13.2677 14.0304 13.5386 13.3781 13.5386 12.6153V10.1249C13.5385 9.9967 13.4712 9.90381 13.3365 9.84606Z" fill="#A1BF35"/>
</svg>
