<svg width="28" height="30" viewBox="0 0 28 30" fill="none" xmlns="http://www.w3.org/2000/svg">
<g clip-path="url(#clip0)">
<path d="M14.2647 13.8846C14.2301 13.8543 14.2102 13.8131 14.1779 13.7804V24.5143C14.1779 24.7269 14.0115 24.8997 13.8064 24.8997H4.45063C4.2455 24.8997 4.07911 24.727 4.07911 24.5143V7.71614C4.07911 7.50359 4.2455 7.33075 4.45063 7.33075H10.5121V5.36511H3.86838C2.88588 5.36511 2.08911 6.19247 2.08911 7.21328V27.2288C2.08911 28.2495 2.88588 29.0769 3.86838 29.0769H14.3887C15.3712 29.0769 16.1679 28.2496 16.1679 27.2288V14.3088C15.9849 14.3625 15.7963 14.3942 15.6056 14.3942C15.1096 14.3942 14.6293 14.2095 14.2647 13.8846ZM9.12847 28.0322C8.50737 28.0322 8.00458 27.5095 8.00458 26.865C8.00458 26.2204 8.50737 25.6978 9.12847 25.6978C9.74873 25.6978 10.2525 26.2204 10.2525 26.865C10.2525 27.5095 9.74867 28.0322 9.12847 28.0322Z" fill="#A1BF35"/>
<path d="M24.2632 0H14.0526C13.1426 0 12.405 0.76598 12.405 1.71092V7.61011C12.405 8.55505 13.1426 9.32103 14.0526 9.32103H16.4516L15.4321 12.1703C15.4052 12.2457 15.4264 12.3307 15.4857 12.3824C15.5199 12.4127 15.5624 12.4285 15.6054 12.4285C15.6364 12.4285 15.6678 12.4203 15.6961 12.4036L20.9432 9.32103H24.2632C25.1732 9.32103 25.9108 8.55511 25.9108 7.61011V1.71092C25.9108 0.76598 25.1732 0 24.2632 0Z" fill="#A1BF35"/>
</g>
<defs>
<clipPath id="clip0">
<rect width="28" height="29.0769" fill="white"/>
</clipPath>
</defs>
</svg>
