<svg width="16" height="16" fill="none" xmlns="http://www.w3.org/2000/svg"><path d="M15.685 7.44l-2.57-1.284 2.57-1.285a.626.626 0 0 0 0-1.118L8.31.066a.626.626 0 0 0-.56 0L.377 3.753a.626.626 0 0 0 0 1.118l2.57 1.285-2.57 1.285a.626.626 0 0 0 0 1.118l2.57 1.285-2.57 1.285a.625.625 0 0 0 0 1.117l7.375 3.688a.625.625 0 0 0 .559 0l7.375-3.688a.626.626 0 0 0 0-1.117l-2.57-1.285 2.57-1.285a.626.626 0 0 0 0-1.118zM8.03 1.325l5.978 2.989L8.03 7.3 2.053 4.313l5.977-2.99zm5.978 10.364L8.03 14.676l-5.977-2.988 2.29-1.146 3.408 1.704a.625.625 0 0 0 .559 0l3.408-1.704 2.29 1.146zm-5.978-.7L2.053 8l2.29-1.145L7.75 8.559a.625.625 0 0 0 .559 0l3.408-1.704L14.008 8 8.03 10.989z" fill="#A1BF35"/></svg>