<svg width="50" height="50" viewBox="0 0 50 50" fill="none" xmlns="http://www.w3.org/2000/svg">
<path d="M15 40C12.25 40 10 42.25 10 45C10 47.75 12.25 50 15 50C17.75 50 20 47.75 20 45C20 42.25 17.75 40 15 40ZM0 0V5H5L14 24L10.5 30C10.25 30.75 10 31.75 10 32.5C10 35.25 12.25 37.5 15 37.5H45V32.5H16C15.75 32.5 15.5 32.25 15.5 32V31.7499L17.75 27.4999H36.25C38.25 27.4999 39.75 26.4999 40.5 24.9999L49.5 8.75C50 8.25 50 8 50 7.5C50 6 49 5 47.5 5H10.5L8.25 0H0ZM40 40C37.25 40 35 42.25 35 45C35 47.75 37.25 50 40 50C42.75 50 45 47.75 45 45C45 42.25 42.75 40 40 40Z" fill="#C4C4C4" fill-opacity="0.7"/>
</svg>
