<svg width="64" height="52" viewBox="0 0 64 52" fill="none" xmlns="http://www.w3.org/2000/svg">
<path d="M62.986 0.759521H1.01401C0.454072 0.759521 0 1.21339 0 1.77353V50.2264C0 50.7865 0.454072 51.2404 1.01401 51.2404H62.986C63.5463 51.2404 64 50.7865 64 50.2264V1.77353C64 1.21339 63.5463 0.759521 62.986 0.759521ZM57.916 43.1561L43.9701 28.7138C43.816 28.5546 43.5639 28.5443 43.3976 28.6907L33.725 37.2041L21.3619 21.9817C21.2816 21.8823 21.1641 21.8255 21.0313 21.8283C20.9033 21.831 20.7839 21.8924 20.7074 21.995L6.08404 41.6171V6.84356H57.916V43.1561Z" fill="#C4C4C4" fill-opacity="0.5"/>
<path d="M42.6002 21.4906C45.3457 21.4906 47.5747 19.2635 47.5747 16.5157C47.5747 13.7688 45.3457 11.5404 42.6002 11.5404C39.8524 11.5404 37.6259 13.7688 37.6259 16.5157C37.6259 19.2633 39.8526 21.4906 42.6002 21.4906Z" fill="#C4C4C4" fill-opacity="0.5"/>
</svg>
