<svg width="16" height="17" viewBox="0 0 16 17" fill="none" xmlns="http://www.w3.org/2000/svg">
  <path fill-rule="evenodd" clip-rule="evenodd" d="M6.11768 10.0751C8.41676 10.0751 10.2354 8.24262 10.2354 6.03754C10.2354 3.83245 8.41676 2 6.11768 2C3.8186 2 2 3.83245 2 6.03754C2 8.24262 3.8186 10.0751 6.11768 10.0751ZM10.8251 9.89379C11.7058 8.84786 12.2354 7.50373 12.2354 6.03754C12.2354 2.7031 9.49638 -2.9054e-07 6.11768 -1.87169e-07C2.73898 -8.37986e-08 1.68812e-07 2.7031 3.77052e-07 6.03754C5.85292e-07 9.37198 2.73898 12.0751 6.11768 12.0751C7.28242 12.0751 8.37114 11.7538 9.29784 11.1962L14.5765 16.4058L16 15.0009L10.8251 9.89379Z" fill="#A1BF35"/>
</svg>