<svg width="23" height="23" viewBox="0 0 23 23" fill="none" xmlns="http://www.w3.org/2000/svg">
<path fill-rule="evenodd" clip-rule="evenodd" d="M15.1547 9.17111C15.1547 12.7864 12.2239 15.7172 8.60861 15.7172C4.99329 15.7172 2.0625 12.7864 2.0625 9.17111C2.0625 5.55579 4.99329 2.625 8.60861 2.625C12.2239 2.625 15.1547 5.55579 15.1547 9.17111ZM14.0671 15.7472C12.5866 16.9774 10.684 17.7172 8.60861 17.7172C3.88873 17.7172 0.0625 13.891 0.0625 9.17111C0.0625 4.45123 3.88873 0.625 8.60861 0.625C13.3285 0.625 17.1547 4.45123 17.1547 9.17111C17.1547 11.0948 16.5192 12.8699 15.4466 14.2982L22.7104 21.562L21.2962 22.9763L14.0671 15.7472Z" fill="#A1BF35"/>
</svg>
