<svg width="19" height="28" fill="none" xmlns="http://www.w3.org/2000/svg"><path d="M18.551 6.969c-.098-.374-.297-.772-.445-1.12C16.341 1.543 12.486 0 9.372 0 5.204 0 .612 2.837 0 8.686v1.195c0 .05.017.498.041.722.344 2.787 2.51 5.75 4.128 8.537 1.74 2.986 3.547 5.924 5.336 8.86 1.104-1.916 2.203-3.858 3.282-5.724.293-.548.635-1.096.929-1.619.196-.348.57-.696.742-1.02C16.198 16.402 19 13.142 19 9.931V8.61c0-.347-.425-1.567-.449-1.642zm-9.103 5.998c-1.225 0-2.566-.622-3.228-2.34-.099-.273-.09-.82-.09-.87v-.772c0-2.19 1.83-3.186 3.424-3.186 1.961 0 3.478 1.593 3.478 3.585a3.588 3.588 0 0 1-3.584 3.583z" fill="url(#paint0_linear)"/><path d="M18.551 6.969c-.098-.374-.297-.772-.445-1.12C16.341 1.543 12.486 0 9.372 0 5.204 0 .612 2.837 0 8.686v1.195c0 .05.017.498.041.722.344 2.787 2.51 5.75 4.128 8.537 1.74 2.986 3.547 5.924 5.336 8.86 1.104-1.916 2.203-3.858 3.282-5.724.293-.548.635-1.096.929-1.619.196-.348.57-.696.742-1.02C16.198 16.402 19 13.142 19 9.931V8.61c0-.347-.425-1.567-.449-1.642zm-9.103 5.998c-1.225 0-2.566-.622-3.228-2.34-.099-.273-.09-.82-.09-.87v-.772c0-2.19 1.83-3.186 3.424-3.186 1.961 0 3.478 1.593 3.478 3.585a3.588 3.588 0 0 1-3.584 3.583z" fill="#A1BF35"/><defs><linearGradient id="paint0_linear" x1="9.5" y1="0" x2="9.5" y2="28" gradientUnits="userSpaceOnUse"><stop stop-color="#99D42A"/><stop offset="1" stop-color="#88C318"/></linearGradient></defs></svg>