<svg width="34" height="48" viewBox="0 0 34 48" fill="none" xmlns="http://www.w3.org/2000/svg">
<path d="M32.2857 11.9467C32.1149 11.3064 31.7679 10.624 31.5112 10.0267C28.4398 2.64533 21.7289 0 16.3101 0C9.05609 0 1.06666 4.86412 0 14.8902V16.9386C0 17.0241 0.029462 17.792 0.0713113 18.1761C0.669255 22.9543 4.43961 28.0325 7.25545 32.8107C10.2849 37.93 13.4284 42.966 16.5428 47.9999C18.4632 44.7149 20.3766 41.3867 22.2533 38.1867C22.7647 37.2476 23.3584 36.3091 23.8704 35.4127C24.2117 34.8159 24.8637 34.2191 25.1615 33.6637C28.1909 28.1174 33.0669 22.5282 33.0669 17.024V14.7628C33.067 14.1661 32.3274 12.0754 32.2857 11.9467ZM16.4429 22.2296C14.3106 22.2296 11.9766 21.1634 10.8246 18.2189C10.653 17.7502 10.6668 16.8108 10.6668 16.7248V15.4021C10.6668 11.6484 13.854 9.9414 16.6268 9.9414C20.0404 9.9414 22.6805 12.6724 22.6805 16.086C22.6805 19.4995 19.8565 22.2296 16.4429 22.2296Z" fill="url(#paint0_linear)"/>
<path d="M32.2857 11.9467C32.1149 11.3064 31.7679 10.624 31.5112 10.0267C28.4398 2.64533 21.7289 0 16.3101 0C9.05609 0 1.06666 4.86412 0 14.8902V16.9386C0 17.0241 0.029462 17.792 0.0713113 18.1761C0.669255 22.9543 4.43961 28.0325 7.25545 32.8107C10.2849 37.93 13.4284 42.966 16.5428 47.9999C18.4632 44.7149 20.3766 41.3867 22.2533 38.1867C22.7647 37.2476 23.3584 36.3091 23.8704 35.4127C24.2117 34.8159 24.8637 34.2191 25.1615 33.6637C28.1909 28.1174 33.0669 22.5282 33.0669 17.024V14.7628C33.067 14.1661 32.3274 12.0754 32.2857 11.9467ZM16.4429 22.2296C14.3106 22.2296 11.9766 21.1634 10.8246 18.2189C10.653 17.7502 10.6668 16.8108 10.6668 16.7248V15.4021C10.6668 11.6484 13.854 9.9414 16.6268 9.9414C20.0404 9.9414 22.6805 12.6724 22.6805 16.086C22.6805 19.4995 19.8565 22.2296 16.4429 22.2296Z" fill="#61AE3B"/>
<path d="M32.2857 11.9467C32.1149 11.3064 31.7679 10.624 31.5112 10.0267C28.4398 2.64533 21.7289 0 16.3101 0C9.05609 0 1.06666 4.86412 0 14.8902V16.9386C0 17.0241 0.029462 17.792 0.0713113 18.1761C0.669255 22.9543 4.43961 28.0325 7.25545 32.8107C10.2849 37.93 13.4284 42.966 16.5428 47.9999C18.4632 44.7149 20.3766 41.3867 22.2533 38.1867C22.7647 37.2476 23.3584 36.3091 23.8704 35.4127C24.2117 34.8159 24.8637 34.2191 25.1615 33.6637C28.1909 28.1174 33.0669 22.5282 33.0669 17.024V14.7628C33.067 14.1661 32.3274 12.0754 32.2857 11.9467ZM16.4429 22.2296C14.3106 22.2296 11.9766 21.1634 10.8246 18.2189C10.653 17.7502 10.6668 16.8108 10.6668 16.7248V15.4021C10.6668 11.6484 13.854 9.9414 16.6268 9.9414C20.0404 9.9414 22.6805 12.6724 22.6805 16.086C22.6805 19.4995 19.8565 22.2296 16.4429 22.2296Z" fill="#333333"/>
<defs>
<linearGradient id="paint0_linear" x1="16.5335" y1="0" x2="16.5335" y2="47.9999" gradientUnits="userSpaceOnUse">
<stop stop-color="#99D42A"/>
<stop offset="1" stop-color="#88C318"/>
</linearGradient>
</defs>
</svg>
